<?xml version="1.0" standalone="no"?>
<!DOCTYPE svg PUBLIC "-//W3C//DTD SVG 20010904//EN"
 "http://www.w3.org/TR/2001/REC-SVG-20010904/DTD/svg10.dtd">
<svg version="1.0" xmlns="http://www.w3.org/2000/svg"
 width="400.000000pt" height="400.000000pt" viewBox="0 0 400.000000 400.000000"
 preserveAspectRatio="xMidYMid meet">
<metadata>
Created by potrace 1.14, written by Peter Selinger 2001-2017
</metadata>
<g transform="translate(0.000000,400.000000) scale(0.100000,-0.100000)"
fill="#000000" stroke="none">
<path d="M1793 3838 c-7 -8 -35 -20 -63 -27 -30 -8 -50 -18 -50 -27 0 -9 -12
-14 -36 -14 -26 0 -43 -8 -66 -30 -16 -16 -26 -30 -21 -30 4 0 -7 -9 -25 -20
-18 -11 -36 -28 -39 -38 -4 -9 -29 -47 -56 -84 -26 -37 -46 -72 -42 -78 3 -5
3 -15 -1 -21 -4 -8 -9 -7 -14 2 -6 8 -11 -1 -15 -27 -3 -21 -10 -57 -15 -79
-27 -121 -29 -301 -6 -460 14 -93 20 -113 40 -130 14 -11 26 -33 28 -50 3 -22
6 -13 12 33 5 34 13 62 17 62 5 0 9 5 9 11 0 5 -4 7 -10 4 -5 -3 -10 3 -10 14
0 12 -4 21 -8 21 -4 0 -4 37 0 83 10 95 11 167 3 175 -3 3 -5 -4 -5 -16 0 -11
-4 -24 -10 -27 -6 -4 -8 7 -6 27 2 18 4 44 5 57 1 16 5 21 16 17 18 -7 21 29
3 40 -8 5 -9 1 -4 -12 6 -15 5 -17 -5 -6 -10 9 -10 15 -1 24 7 7 12 8 12 2 0
-10 26 35 58 104 12 23 26 42 33 42 7 0 20 7 29 15 16 15 54 28 75 26 49 -4
92 -16 101 -29 8 -11 20 -13 45 -8 19 3 52 9 74 12 22 4 47 13 56 20 8 8 31
17 50 20 19 4 48 15 66 26 18 10 54 21 80 23 26 2 78 8 115 14 75 13 101 6
137 -33 15 -16 31 -24 41 -21 11 4 29 -13 60 -54 23 -33 49 -62 56 -65 17 -7
68 -115 65 -138 -1 -9 3 -19 9 -23 6 -3 10 3 10 17 1 21 1 21 11 5 6 -10 9
-27 6 -38 -3 -11 1 -33 10 -49 19 -40 9 -187 -12 -170 -11 9 -12 7 -8 -9 8
-32 -13 -25 -36 12 -11 17 -21 27 -21 20 0 -6 5 -15 11 -18 5 -4 9 -14 7 -23
-2 -10 4 -24 13 -32 9 -8 22 -35 29 -60 10 -37 14 -41 20 -25 5 15 16 20 41
20 32 0 35 3 47 50 9 31 15 113 15 220 2 157 0 173 -20 215 -17 33 -19 46 -10
52 8 5 0 20 -28 49 -22 23 -48 50 -57 61 -10 10 -18 24 -18 32 0 8 -9 18 -20
21 -11 3 -20 12 -20 19 0 7 -18 32 -40 56 -34 37 -43 42 -70 37 -26 -6 -30 -4
-30 16 0 36 -50 77 -96 79 -21 1 -46 9 -56 18 -24 22 -105 46 -203 60 -44 7
-98 18 -120 26 -66 23 -129 28 -142 12z m853 -964 c-6 -22 -4 -25 14 -19 14 5
20 2 20 -9 0 -24 -46 -21 -53 4 -3 11 -1 20 4 20 5 0 8 3 8 8 -2 13 1 22 7 22
3 0 3 -12 0 -26z"/>
<path d="M1645 3061 c-95 -10 -155 -60 -155 -128 0 -15 -7 -35 -17 -45 -9 -10
-12 -18 -7 -18 5 0 9 -30 9 -68 1 -80 24 -130 84 -185 23 -20 41 -40 41 -43 0
-4 10 -16 23 -28 34 -31 48 -68 32 -89 -7 -9 -17 -17 -23 -17 -6 0 -23 -26
-38 -59 l-28 -58 -21 31 c-11 17 -38 40 -59 51 -45 24 -52 39 -62 134 -3 39
-11 71 -16 71 -5 0 -6 -5 -3 -10 4 -6 1 -17 -5 -25 -8 -10 -10 -34 -5 -77 7
-56 6 -61 -8 -49 -31 25 -77 212 -64 260 4 17 1 21 -18 21 -28 0 -35 -17 -35
-83 0 -66 34 -139 88 -195 37 -37 41 -46 38 -84 -2 -28 8 -78 30 -143 18 -55
35 -115 39 -132 4 -18 12 -36 19 -40 7 -5 20 -24 29 -44 9 -20 23 -42 32 -49
19 -16 19 -49 0 -56 -9 -4 -15 -11 -14 -18 4 -20 -20 -66 -33 -64 -7 2 -12 -3
-11 -9 2 -8 -8 -13 -25 -13 -24 -1 -25 -2 -9 -14 18 -14 24 -32 7 -21 -6 4
-10 -5 -10 -19 0 -29 16 -35 23 -8 3 11 5 7 6 -10 1 -34 -13 -43 -34 -22 -9 9
-18 14 -21 11 -3 -2 2 -12 11 -20 8 -9 15 -23 15 -31 0 -21 10 -20 25 1 8 11
18 14 31 9 18 -8 18 -9 -3 -17 -13 -4 -23 -11 -23 -14 0 -3 10 -20 23 -37 16
-22 18 -32 10 -35 -18 -6 -16 -28 2 -43 8 -7 15 -16 15 -21 0 -5 -7 -9 -15 -9
-8 0 -15 -5 -15 -11 0 -6 7 -17 15 -25 8 -9 15 -27 15 -41 0 -50 71 -131 126
-145 26 -7 42 19 46 72 3 32 6 35 36 35 24 0 32 4 32 17 0 10 -3 17 -7 16 -17
-5 -53 28 -53 48 0 12 -7 27 -15 34 -8 7 -15 20 -15 30 0 10 -6 20 -13 23 -17
7 -45 121 -53 225 -8 100 1 105 69 32 25 -27 49 -45 52 -39 7 11 35 -14 35
-30 0 -7 10 -9 25 -5 15 4 25 2 25 -5 0 -6 10 -11 21 -11 18 0 21 -4 16 -30
-6 -29 3 -42 30 -46 7 -1 27 -9 44 -18 40 -20 69 -21 69 -1 0 8 -16 19 -40 25
-24 6 -40 17 -40 26 0 10 -7 13 -25 8 -16 -4 -25 -2 -25 6 0 8 16 10 55 5 38
-5 55 -4 55 4 0 6 12 11 28 11 15 0 59 9 97 20 39 11 84 23 100 27 17 3 41 14
55 23 14 10 35 21 48 24 12 4 33 17 46 29 24 23 77 69 116 100 12 10 24 17 26
15 2 -3 4 -42 5 -89 1 -97 -12 -134 -76 -224 -48 -68 -163 -180 -194 -190 -12
-3 -21 -10 -21 -15 0 -5 -15 -12 -32 -15 -18 -4 -44 -13 -58 -21 -14 -7 -46
-16 -72 -19 -32 -4 -48 -11 -48 -21 0 -8 -7 -14 -16 -14 -27 0 -13 -53 16 -60
17 -4 21 -8 12 -14 -21 -13 -13 -24 26 -33 20 -5 36 -15 34 -21 -4 -21 25 -13
31 8 3 12 14 20 27 20 13 0 24 -8 27 -20 6 -23 23 -27 23 -5 0 8 5 15 10 15 6
0 10 -10 10 -22 0 -30 10 -44 38 -52 12 -4 22 -12 22 -17 0 -5 9 0 20 11 11
11 20 24 20 28 0 5 14 21 31 38 17 16 37 40 44 54 7 14 23 36 35 50 13 14 35
43 49 66 16 24 32 39 40 36 10 -3 12 0 8 12 -4 9 -2 16 3 16 15 0 22 40 10 55
-10 12 -9 15 9 15 11 0 22 -6 22 -12 1 -7 2 -20 3 -28 1 -16 36 -28 36 -12 0
5 -7 15 -15 22 -9 7 -13 21 -10 31 5 14 0 20 -19 25 -21 5 -24 9 -15 25 5 10
17 19 27 19 16 -1 16 -2 -1 -14 -10 -8 -15 -16 -10 -19 14 -9 46 21 40 37 -4
9 -1 18 4 22 6 3 9 15 6 25 -3 11 -1 19 4 19 5 0 9 5 9 10 0 6 -7 10 -15 10
-18 0 -19 12 -3 28 10 10 10 14 0 20 -12 8 -19 38 -29 132 -4 39 -12 63 -29
81 -23 24 -24 27 -9 62 8 19 19 38 25 42 5 3 10 15 10 26 0 11 9 38 20 59 38
74 62 203 54 290 -5 63 -4 79 8 86 21 12 38 48 38 78 0 27 -15 35 -23 14 -3
-7 -6 4 -6 24 -1 20 -5 39 -10 43 -18 10 -22 -15 -10 -49 9 -26 10 -41 1 -58
-8 -18 -11 -19 -11 -5 -1 9 -6 17 -12 17 -9 0 -10 -22 -6 -77 5 -67 3 -81 -13
-103 -20 -25 -20 -25 -20 -2 0 12 -4 22 -10 22 -5 0 -10 -7 -10 -15 0 -9 -7
-18 -15 -21 -8 -4 -15 -16 -15 -28 0 -27 -15 -50 -27 -43 -6 4 -15 -5 -21 -18
-7 -14 -19 -25 -28 -25 -13 0 -15 6 -8 28 15 53 3 114 -30 148 -6 6 -33 39
-61 73 -27 33 -56 61 -62 61 -7 0 -13 5 -13 11 0 6 -9 9 -20 6 -11 -3 -18 -1
-14 4 3 5 15 9 28 9 12 0 26 4 32 8 5 5 31 17 57 26 69 26 123 96 132 172 4
30 5 70 2 89 -4 21 -1 36 6 39 9 3 9 5 0 5 -7 1 -10 8 -7 16 8 20 -11 42 -65
77 -43 27 -50 28 -166 28 -98 0 -125 -3 -145 -17 -14 -10 -26 -17 -27 -15 -11
10 -23 -4 -29 -33 -3 -19 -10 -38 -15 -41 -5 -3 -9 -13 -8 -22 0 -11 3 -12 6
-4 2 6 15 12 29 12 20 0 22 -3 15 -22 -5 -13 -14 -23 -21 -23 -17 0 -24 -21
-11 -30 6 -3 11 -16 11 -27 0 -29 -13 -14 -25 30 -10 35 -12 37 -49 34 -31 -3
-38 0 -43 17 -3 12 -9 21 -14 21 -5 0 -9 6 -9 13 0 7 -18 30 -39 51 -31 30
-52 41 -102 52 -35 7 -66 13 -69 12 -3 -1 -32 -4 -65 -7z m813 -139 c6 -9 12
-43 12 -76 0 -100 -53 -170 -139 -186 -32 -6 -41 -4 -41 6 0 16 -16 19 -25 4
-4 -6 -12 -7 -18 -3 -7 4 -20 6 -30 5 -28 -5 -84 35 -97 71 -7 17 -16 41 -21
52 -14 35 -15 85 0 85 5 0 8 -6 8 -12 -1 -7 7 -31 16 -54 20 -45 56 -64 121
-64 34 0 37 2 25 16 -11 13 -11 17 1 24 8 5 24 16 35 24 18 14 18 15 1 10 -16
-6 -17 -4 -11 17 4 13 9 26 11 28 7 7 34 -21 28 -30 -3 -5 1 -9 10 -9 8 0 21
-3 30 -6 9 -3 16 -2 16 3 0 17 -40 53 -68 59 -45 11 -58 44 -17 44 14 0 25 4
25 8 0 16 114 1 128 -16z m-458 -42 c0 -5 0 -12 -1 -15 0 -3 11 -19 24 -35 14
-16 35 -49 47 -75 25 -51 93 -125 115 -125 16 0 16 -1 20 -38 2 -21 36 -65 90
-115 16 -15 17 -19 5 -27 -24 -15 -65 -11 -86 8 -10 10 -27 16 -37 14 -12 -2
-22 7 -33 33 -12 30 -19 36 -41 33 -28 -3 -45 -28 -20 -28 7 0 21 -8 31 -19
16 -17 15 -19 -21 -24 -21 -3 -48 -9 -60 -13 -19 -5 -23 -2 -23 15 0 11 -6 21
-13 21 -8 0 -24 12 -38 26 -19 21 -31 25 -59 21 -19 -3 -43 -8 -52 -12 -29
-12 -16 45 20 83 21 23 28 38 24 54 -3 13 -1 19 5 15 6 -4 11 4 11 19 0 13 6
32 15 42 23 25 39 72 39 115 -1 30 3 37 19 37 10 0 19 -4 19 -10z m-454 -8
c19 -13 11 -64 -11 -73 -18 -7 -18 -8 -1 -8 12 -1 16 -6 12 -16 -4 -11 2 -15
22 -16 17 -1 20 -3 10 -6 -24 -6 -23 -23 2 -23 11 0 20 -5 20 -11 0 -5 -4 -8
-9 -5 -4 3 -7 -16 -5 -42 l4 -47 -39 41 c-45 48 -67 106 -57 158 5 27 10 34
23 29 12 -5 15 -2 10 10 -7 18 1 22 19 9z m139 -43 c9 -27 3 -32 -20 -15 -10
7 -15 18 -11 24 11 18 24 14 31 -9z m-46 -70 c-33 -8 -44 0 -22 16 14 10 21
11 32 2 11 -10 9 -13 -10 -18z m-37 -81 c-7 -7 -12 -8 -12 -2 0 14 12 26 19
19 2 -3 -1 -11 -7 -17z m657 -314 c68 -8 79 -18 26 -28 -37 -7 -99 -36 -77
-36 9 0 7 -9 -8 -30 -12 -17 -26 -28 -31 -25 -5 4 -9 1 -9 -6 0 -7 -9 -9 -22
-6 -12 4 -27 2 -32 -2 -6 -5 -42 -10 -81 -12 l-70 -4 -3 33 c-3 31 -2 33 25
31 39 -4 113 11 113 22 0 6 -5 7 -12 3 -8 -5 -9 -2 -5 10 4 9 3 14 -2 11 -5
-3 -12 -1 -15 3 -3 5 -16 7 -28 5 -13 -2 -34 1 -48 7 -23 10 -22 10 11 6 20
-2 47 2 60 9 27 15 115 18 208 9z m-329 -110 c0 -8 -4 -12 -10 -9 -5 3 -10 10
-10 16 0 5 5 9 10 9 6 0 10 -7 10 -16z m390 -7 c0 -41 -39 -138 -63 -161 -31
-28 -81 -56 -100 -56 -16 0 -30 26 -22 39 4 7 -9 12 -95 38 -35 10 -37 10 -62
12 -12 0 -18 4 -14 8 3 4 36 6 72 5 53 -1 66 1 71 16 12 34 36 52 69 52 23 0
48 11 80 35 54 41 64 43 64 12z m-453 -123 c-3 -3 -12 -4 -19 -1 -8 3 -5 6 6
6 11 1 17 -2 13 -5z m713 -493 c0 -11 -3 -11 -15 -1 -8 7 -15 22 -15 33 0 20
0 20 15 1 8 -10 15 -25 15 -33z"/>
<path d="M2107 2299 c7 -7 21 -7 44 -1 l34 10 -44 1 c-32 1 -42 -2 -34 -10z"/>
<path d="M2732 2768 c38 -29 46 -63 32 -138 -14 -75 -24 -98 -50 -124 -8 -9
-11 -16 -6 -16 13 0 46 40 77 94 51 88 30 186 -41 194 -26 3 -27 2 -12 -10z"/>
<path d="M1380 2670 c0 -5 5 -10 10 -10 6 0 10 5 10 10 0 6 -4 10 -10 10 -5 0
-10 -4 -10 -10z"/>
<path d="M1420 1670 c0 -5 5 -10 10 -10 6 0 10 5 10 10 0 6 -4 10 -10 10 -5 0
-10 -4 -10 -10z"/>
<path d="M2605 1600 c3 -5 8 -10 11 -10 2 0 4 5 4 10 0 6 -5 10 -11 10 -5 0
-7 -4 -4 -10z"/>
<path d="M1300 1579 c0 -5 5 -7 10 -4 6 3 10 8 10 11 0 2 -4 4 -10 4 -5 0 -10
-5 -10 -11z"/>
<path d="M1370 1580 c0 -5 5 -10 11 -10 5 0 7 5 4 10 -3 6 -8 10 -11 10 -2 0
-4 -4 -4 -10z"/>
<path d="M1246 1535 c-3 -9 0 -15 9 -15 16 0 20 16 6 24 -5 3 -11 -1 -15 -9z"/>
<path d="M1110 1514 c0 -8 5 -12 10 -9 6 3 10 10 10 16 0 5 -4 9 -10 9 -5 0
-10 -7 -10 -16z"/>
<path d="M1150 1519 c0 -5 5 -7 10 -4 6 3 10 8 10 11 0 2 -4 4 -10 4 -5 0 -10
-5 -10 -11z"/>
<path d="M1450 1520 c0 -5 5 -10 11 -10 5 0 7 5 4 10 -3 6 -8 10 -11 10 -2 0
-4 -4 -4 -10z"/>
<path d="M1267 1496 c-3 -8 -2 -18 3 -21 13 -8 24 15 12 27 -6 6 -11 4 -15 -6z"/>
<path d="M2950 1485 c-10 -12 -10 -15 3 -15 19 0 31 16 18 24 -5 3 -14 -1 -21
-9z"/>
<path d="M1330 1479 c0 -5 5 -7 10 -4 6 3 10 8 10 11 0 2 -4 4 -10 4 -5 0 -10
-5 -10 -11z"/>
<path d="M2985 1455 c-16 -19 -34 -34 -38 -34 -5 -1 -15 -8 -23 -16 -18 -17
-34 -20 -34 -5 0 6 7 10 16 10 9 0 14 5 12 12 -7 21 -26 20 -33 -1 -3 -12 -11
-21 -16 -21 -15 0 -10 -17 7 -24 19 -7 94 13 94 26 0 4 5 8 10 8 7 0 6 -8 -2
-22 -7 -13 -11 -31 -9 -40 1 -10 -3 -18 -9 -18 -6 0 -8 -5 -5 -10 4 -6 12 -7
18 -3 7 4 21 6 32 5 19 -2 19 -2 2 11 -20 16 -13 49 9 40 8 -3 14 0 14 6 0 6
-7 11 -15 11 -8 0 -15 4 -15 9 0 5 -3 16 -6 24 -3 9 3 16 15 20 22 5 30 -8 10
-15 -7 -2 -10 -10 -8 -16 3 -9 11 -7 27 8 26 24 28 40 7 40 -8 0 -15 7 -15 15
0 22 -11 17 -45 -20z"/>
<path d="M975 1470 c-3 -5 -1 -10 4 -10 6 0 11 5 11 10 0 6 -2 10 -4 10 -3 0
-8 -4 -11 -10z"/>
<path d="M1106 1459 c-11 -10 -16 -22 -12 -26 4 -5 14 0 21 10 9 13 20 17 34
12 24 -7 29 10 5 19 -22 9 -27 7 -48 -15z"/>
<path d="M1195 1470 c-3 -5 -1 -10 4 -10 6 0 11 5 11 10 0 6 -2 10 -4 10 -3 0
-8 -4 -11 -10z"/>
<path d="M1050 1460 c0 -5 5 -10 10 -10 6 0 10 5 10 10 0 6 -4 10 -10 10 -5 0
-10 -4 -10 -10z"/>
<path d="M2840 1460 c0 -5 5 -10 11 -10 5 0 7 5 4 10 -3 6 -8 10 -11 10 -2 0
-4 -4 -4 -10z"/>
<path d="M2910 1461 c0 -5 7 -15 17 -22 15 -13 15 -12 4 9 -12 23 -21 28 -21
13z"/>
<path d="M1192 1430 c-10 -17 -10 -21 3 -26 22 -9 27 -1 18 24 -8 22 -8 22
-21 2z"/>
<path d="M907 1423 c-12 -11 -8 -23 8 -23 8 0 15 7 15 15 0 16 -12 20 -23 8z"/>
<path d="M1013 1423 c-13 -2 -23 -11 -23 -19 0 -8 -4 -14 -10 -14 -5 0 -10 5
-10 12 0 9 -3 9 -12 0 -17 -17 -19 -70 -3 -76 8 -3 11 -13 8 -25 -4 -15 -1
-21 11 -21 10 0 16 9 16 25 0 14 -4 25 -10 25 -5 0 -10 9 -10 20 0 11 5 20 10
20 6 0 10 -8 10 -19 0 -13 9 -20 30 -23 20 -3 30 0 30 9 0 7 -5 12 -11 11 -6
-2 -16 5 -22 14 -9 14 -8 21 5 35 21 20 36 10 18 -12 -10 -12 -10 -15 3 -15 9
0 18 3 20 8 6 10 -11 52 -20 51 -4 -1 -18 -4 -30 -6z"/>
<path d="M1123 1404 c-12 -13 -17 -26 -12 -30 5 -3 12 2 15 10 3 9 12 16 20
16 8 0 14 4 14 9 0 21 -16 18 -37 -5z"/>
<path d="M1231 1394 c-11 -30 -11 -38 0 -45 11 -6 10 -9 -4 -15 -9 -3 -24 -4
-32 0 -17 6 -65 -13 -65 -26 0 -5 9 -6 20 -3 15 5 20 2 20 -12 0 -11 5 -24 11
-30 8 -8 8 -13 0 -17 -6 -4 -11 -14 -11 -23 0 -9 -8 -22 -17 -29 -17 -13 -16
-15 7 -35 l25 -21 -27 5 c-31 5 -35 -4 -14 -26 8 -7 16 -25 18 -38 2 -18 10
-25 30 -27 23 -3 27 0 21 14 -4 12 -2 15 8 12 8 -3 13 -14 11 -26 -2 -11 2
-23 8 -27 15 -9 2 -25 -15 -18 -25 9 -17 -13 10 -27 19 -10 27 -10 39 -1 10 8
16 9 21 1 13 -21 42 7 37 38 -2 18 2 35 12 45 20 19 21 38 2 31 -9 -3 -17 3
-21 15 -3 12 -13 21 -21 21 -8 0 -12 5 -9 10 4 6 11 7 17 4 6 -4 17 1 24 11 8
10 17 16 21 12 3 -4 -2 -16 -12 -27 -10 -11 -16 -22 -13 -25 8 -8 58 13 58 25
0 15 26 12 43 -5 20 -20 30 -6 14 19 -8 12 -17 36 -20 54 -4 19 -16 45 -27 60
-12 14 -20 38 -19 52 0 14 1 40 0 58 -1 29 -4 32 -30 32 -20 0 -36 -9 -49 -25
-23 -29 -47 -118 -38 -140 3 -9 0 -15 -7 -15 -15 0 -47 -61 -47 -90 0 -11 -7
-20 -15 -20 -12 0 -14 7 -9 28 4 15 10 32 14 37 3 6 13 30 20 55 7 25 17 50
21 55 9 12 16 135 9 135 -4 0 -12 -16 -19 -36z m78 -98 c9 -22 -6 -66 -22 -66
-5 0 -4 7 3 15 10 12 10 21 1 41 -6 14 -11 29 -11 35 0 16 21 -1 29 -25z m-99
14 c0 -5 -4 -10 -10 -10 -5 0 -10 5 -10 10 0 6 5 10 10 10 6 0 10 -4 10 -10z
m130 -110 c0 -5 -5 -10 -11 -10 -5 0 -7 5 -4 10 3 6 8 10 11 10 2 0 4 -4 4
-10z m47 -22 c-3 -7 -5 -2 -5 12 0 14 2 19 5 13 2 -7 2 -19 0 -25z m-120 -18
c1 -11 -1 -22 -5 -24 -4 -2 -8 7 -8 20 -1 13 1 24 5 24 4 0 7 -9 8 -20z m10
-66 c-3 -3 -12 -4 -19 -1 -8 3 -5 6 6 6 11 1 17 -2 13 -5z m13 -28 c0 -8 5
-16 11 -18 9 -3 9 -10 0 -26 -18 -33 -29 -26 -27 18 0 22 4 40 8 40 5 0 8 -6
8 -14z"/>
<path d="M870 1413 c0 -6 -9 -9 -20 -6 -15 4 -20 0 -20 -15 0 -12 -5 -24 -10
-27 -8 -5 -7 -11 1 -21 17 -21 32 -17 26 7 -4 15 1 27 16 40 12 9 19 21 15 25
-5 4 -8 3 -8 -3z"/>
<path d="M2540 1389 c-45 -35 -80 -72 -80 -83 0 -6 5 -4 10 4 6 10 10 -9 12
-60 2 -59 -1 -81 -15 -102 -10 -16 -16 -36 -13 -45 7 -22 -8 -48 -22 -40 -5 4
-18 -3 -28 -14 -18 -20 -18 -20 7 -10 14 5 34 9 45 8 14 -2 20 5 22 25 3 27
48 88 65 88 5 0 4 -7 -3 -15 -10 -12 -9 -16 3 -21 26 -10 37 4 27 32 -13 34
-14 33 18 31 22 -2 27 2 26 21 -1 19 3 22 21 18 16 -4 25 1 35 19 12 22 14 23
25 8 13 -17 9 -53 -6 -53 -20 0 -7 -21 17 -31 33 -12 39 -7 24 21 -10 18 -9
28 1 48 11 20 11 26 1 30 -7 2 -20 11 -28 20 -15 15 -18 14 -36 -7 -10 -13
-22 -21 -26 -17 -4 4 0 13 8 19 9 7 17 26 18 44 2 27 -4 36 -35 58 -45 30 -60
31 -93 4z"/>
<path d="M3063 1395 c-8 -21 1 -28 27 -20 17 5 19 10 9 21 -15 18 -28 18 -36
-1z"/>
<path d="M880 1370 c-12 -7 -12 -12 -3 -21 10 -10 14 -9 19 5 8 22 2 27 -16
16z"/>
<path d="M1195 1371 c-3 -5 -1 -12 5 -16 5 -3 10 1 10 9 0 18 -6 21 -15 7z"/>
<path d="M3311 1359 c-13 -10 -19 -19 -14 -19 13 0 49 27 43 33 -3 3 -16 -3
-29 -14z"/>
<path d="M767 1363 c-12 -12 -7 -33 8 -33 17 0 19 9 7 28 -5 7 -11 9 -15 5z"/>
<path d="M688 1353 c7 -3 16 -2 19 1 4 3 -2 6 -13 5 -11 0 -14 -3 -6 -6z"/>
<path d="M1075 1349 c-10 -15 1 -23 20 -15 9 3 13 10 10 16 -8 13 -22 13 -30
-1z"/>
<path d="M3155 1350 c3 -5 8 -10 11 -10 2 0 4 5 4 10 0 6 -5 10 -11 10 -5 0
-7 -4 -4 -10z"/>
<path d="M3356 1338 c-20 -28 -20 -34 0 -42 10 -4 14 -1 11 6 -2 7 0 23 4 36
11 28 4 28 -15 0z"/>
<path d="M623 1343 c-18 -6 -16 -33 1 -33 19 0 31 19 20 30 -5 4 -15 5 -21 3z"/>
<path d="M2450 1339 c0 -5 5 -7 10 -4 6 3 10 8 10 11 0 2 -4 4 -10 4 -5 0 -10
-5 -10 -11z"/>
<path d="M2840 1340 c0 -5 5 -10 10 -10 6 0 10 5 10 10 0 6 -4 10 -10 10 -5 0
-10 -4 -10 -10z"/>
<path d="M2910 1340 c0 -5 4 -11 9 -14 4 -3 7 -24 6 -47 -2 -33 0 -38 10 -27
16 16 19 36 10 65 -7 22 -35 40 -35 23z"/>
<path d="M3066 1341 c-17 -7 -17 -8 -2 -23 9 -9 16 -20 16 -24 0 -4 7 -16 17
-26 9 -11 11 -18 5 -18 -7 0 -12 -9 -12 -21 0 -12 5 -19 13 -16 6 2 12 20 12
40 0 19 3 39 8 43 11 11 8 26 -4 19 -6 -4 -13 2 -16 14 -6 23 -8 23 -37 12z"/>
<path d="M690 1320 c-8 -5 -11 -12 -7 -16 4 -4 13 -2 19 4 6 6 10 14 7 16 -2
3 -11 1 -19 -4z"/>
<path d="M860 1327 c0 -18 36 -46 49 -38 16 11 4 34 -14 27 -7 -2 -18 1 -24 7
-6 6 -11 8 -11 4z"/>
<path d="M3271 1321 c-10 -7 -8 -10 8 -16 27 -8 36 -2 18 13 -7 6 -18 7 -26 3z"/>
<path d="M787 1314 c-13 -13 -7 -24 14 -24 11 0 19 5 17 12 -5 14 -22 21 -31
12z"/>
<path d="M1004 1273 c1 -49 20 -69 29 -31 8 29 -1 65 -18 71 -9 4 -12 -7 -11
-40z"/>
<path d="M1080 1311 c0 -6 -7 -11 -15 -11 -8 0 -15 -4 -15 -8 0 -4 12 -8 28
-7 28 0 39 24 15 33 -7 2 -13 -1 -13 -7z"/>
<path d="M3180 1311 c0 -5 5 -13 10 -16 6 -3 10 -2 10 4 0 5 -4 13 -10 16 -5
3 -10 2 -10 -4z"/>
<path d="M2976 1303 c-11 -11 -6 -23 9 -23 8 0 15 4 15 9 0 13 -16 22 -24 14z"/>
<path d="M3234 1294 c4 -9 1 -23 -5 -31 -9 -10 -9 -17 -1 -25 14 -14 18 -11
25 29 5 23 2 33 -10 37 -11 5 -14 2 -9 -10z"/>
<path d="M627 1294 c-8 -8 1 -24 14 -24 5 0 9 7 9 15 0 15 -12 20 -23 9z"/>
<path d="M707 1293 c-12 -11 -8 -23 8 -23 8 0 15 7 15 15 0 16 -12 20 -23 8z"/>
<path d="M2872 1291 c2 -7 7 -12 11 -12 12 1 9 15 -3 20 -7 2 -11 -2 -8 -8z"/>
<path d="M3036 1284 c-4 -9 0 -24 9 -34 20 -22 19 -29 -4 -23 -15 4 -19 -1
-19 -19 -1 -12 -2 -34 -4 -47 -2 -13 3 -26 10 -28 9 -3 12 5 10 26 -2 23 4 35
20 47 17 12 20 19 13 28 -6 7 -8 16 -5 19 3 3 -1 15 -9 27 -13 19 -15 19 -21
4z"/>
<path d="M3390 1284 c0 -8 5 -12 10 -9 6 3 10 10 10 16 0 5 -4 9 -10 9 -5 0
-10 -7 -10 -16z"/>
<path d="M840 1271 c0 -17 27 -37 37 -27 7 7 -17 46 -27 46 -6 0 -10 -9 -10
-19z"/>
<path d="M575 1270 c3 -5 8 -10 11 -10 2 0 4 5 4 10 0 6 -5 10 -11 10 -5 0 -7
-4 -4 -10z"/>
<path d="M900 1267 c0 -21 12 -28 27 -16 19 16 16 29 -7 29 -11 0 -20 -6 -20
-13z"/>
<path d="M654 1256 c-8 -22 3 -33 18 -18 9 9 9 15 0 24 -9 9 -13 7 -18 -6z"/>
<path d="M762 1259 c2 -6 8 -10 13 -10 5 0 11 4 13 10 2 6 -4 11 -13 11 -9 0
-15 -5 -13 -11z"/>
<path d="M1050 1259 c0 -5 5 -7 10 -4 6 3 10 8 10 11 0 2 -4 4 -10 4 -5 0 -10
-5 -10 -11z"/>
<path d="M1090 1254 c0 -17 22 -14 28 4 2 7 -3 12 -12 12 -9 0 -16 -7 -16 -16z"/>
<path d="M3185 1260 c3 -5 8 -10 11 -10 2 0 4 5 4 10 0 6 -5 10 -11 10 -5 0
-7 -4 -4 -10z"/>
<path d="M712 1240 c-16 -26 -15 -30 3 -30 9 0 15 9 15 25 0 30 -2 31 -18 5z"/>
<path d="M960 1244 c0 -14 3 -14 15 -4 8 7 15 14 15 16 0 2 -7 4 -15 4 -8 0
-15 -7 -15 -16z"/>
<path d="M580 1240 c0 -5 5 -10 10 -10 6 0 10 5 10 10 0 6 -4 10 -10 10 -5 0
-10 -4 -10 -10z"/>
<path d="M2870 1239 c0 -6 7 -17 16 -26 21 -21 43 -1 24 22 -14 17 -40 20 -40
4z"/>
<path d="M3136 1243 c-12 -12 -6 -43 9 -43 8 0 15 9 15 19 0 21 -13 34 -24 24z"/>
<path d="M3453 1235 c-3 -9 -3 -18 0 -21 9 -9 27 6 27 22 0 19 -19 18 -27 -1z"/>
<path d="M3591 1234 c0 -11 3 -14 6 -6 3 7 2 16 -1 19 -3 4 -6 -2 -5 -13z"/>
<path d="M2970 1231 c0 -5 5 -13 10 -16 6 -3 10 -2 10 4 0 5 -4 13 -10 16 -5
3 -10 2 -10 -4z"/>
<path d="M832 1218 c3 -7 13 -15 22 -16 12 -3 17 1 14 10 -3 7 -13 15 -22 16
-12 3 -17 -1 -14 -10z"/>
<path d="M910 1215 c-7 -8 -9 -15 -4 -15 4 0 -1 -7 -12 -15 -19 -14 -18 -15 6
-34 16 -13 28 -17 35 -10 6 6 5 13 -5 19 -13 8 -12 11 3 22 11 9 16 20 11 31
-8 21 -18 22 -34 2z"/>
<path d="M971 1216 c-7 -8 -8 -17 -3 -20 6 -3 15 1 21 8 7 8 8 17 3 20 -6 3
-15 -1 -21 -8z"/>
<path d="M1050 1220 c0 -5 12 -10 26 -10 14 0 23 4 19 10 -3 6 -15 10 -26 10
-10 0 -19 -4 -19 -10z"/>
<path d="M3200 1220 c0 -5 7 -10 16 -10 8 0 12 5 9 10 -3 6 -10 10 -16 10 -5
0 -9 -4 -9 -10z"/>
<path d="M3280 1221 c0 -5 5 -13 10 -16 6 -3 10 -2 10 4 0 5 -4 13 -10 16 -5
3 -10 2 -10 -4z"/>
<path d="M3355 1220 c3 -5 10 -10 16 -10 5 0 9 5 9 10 0 6 -7 10 -16 10 -8 0
-12 -4 -9 -10z"/>
<path d="M663 1213 c-18 -6 -16 -23 1 -23 17 0 30 16 19 23 -5 2 -14 2 -20 0z"/>
<path d="M1117 1213 c-4 -3 -7 -11 -7 -17 0 -6 5 -5 12 2 6 6 9 14 7 17 -3 3
-9 2 -12 -2z"/>
<path d="M2750 1210 c0 -5 7 -10 15 -10 8 0 15 5 15 10 0 6 -7 10 -15 10 -8 0
-15 -4 -15 -10z"/>
<path d="M2839 1213 c0 -5 -2 -23 -3 -40 -3 -27 0 -33 16 -33 14 0 18 -5 14
-15 -3 -9 1 -18 10 -22 23 -8 29 5 12 24 -9 10 -21 35 -28 56 -11 35 -19 47
-21 30z"/>
<path d="M750 1194 c0 -17 22 -14 28 4 2 7 -3 12 -12 12 -9 0 -16 -7 -16 -16z"/>
<path d="M2634 1199 c-8 -14 11 -33 25 -25 11 7 4 36 -9 36 -5 0 -12 -5 -16
-11z"/>
<path d="M3310 1195 c0 -9 5 -15 11 -13 6 2 11 8 11 13 0 5 -5 11 -11 13 -6 2
-11 -4 -11 -13z"/>
<path d="M620 1191 c0 -6 4 -13 10 -16 6 -3 7 1 4 9 -7 18 -14 21 -14 7z"/>
<path d="M1038 1165 c5 -41 29 -48 30 -7 0 24 -12 41 -28 42 -4 0 -4 -16 -2
-35z"/>
<path d="M3070 1185 c-18 -22 -3 -36 25 -23 29 13 32 23 9 32 -21 8 -20 8 -34
-9z"/>
<path d="M3386 1184 c-4 -9 -4 -19 -1 -22 6 -6 35 18 35 29 0 16 -28 10 -34
-7z"/>
<path d="M460 1174 c0 -14 3 -14 15 -4 8 7 15 14 15 16 0 2 -7 4 -15 4 -8 0
-15 -7 -15 -16z"/>
<path d="M685 1179 c-10 -15 3 -25 16 -12 7 7 7 13 1 17 -6 3 -14 1 -17 -5z"/>
<path d="M826 1183 c-12 -12 -6 -33 9 -33 8 0 15 6 15 14 0 17 -14 28 -24 19z"/>
<path d="M1480 1180 c0 -5 5 -10 11 -10 5 0 7 5 4 10 -3 6 -8 10 -11 10 -2 0
-4 -4 -4 -10z"/>
<path d="M2907 1183 c-12 -11 -8 -23 8 -23 8 0 15 7 15 15 0 16 -12 20 -23 8z"/>
<path d="M3133 1163 c-15 -32 -10 -41 12 -19 23 22 26 20 19 -10 -6 -21 -4
-25 11 -22 27 5 28 21 5 51 -27 34 -32 33 -47 0z"/>
<path d="M3212 1170 c13 -20 38 -28 38 -12 0 12 -23 32 -37 32 -11 0 -11 -4
-1 -20z"/>
<path d="M3555 1180 c-3 -5 -1 -10 4 -10 6 0 11 5 11 10 0 6 -2 10 -4 10 -3 0
-8 -4 -11 -10z"/>
<path d="M550 1164 c0 -14 3 -14 15 -4 8 7 15 14 15 16 0 2 -7 4 -15 4 -8 0
-15 -7 -15 -16z"/>
<path d="M2092 1165 c-12 -9 -34 -15 -49 -13 -22 2 -27 -1 -25 -14 2 -10 -2
-18 -8 -18 -5 0 -10 -4 -10 -10 0 -16 19 -11 37 10 10 11 32 23 50 26 19 4 33
12 33 20 0 17 -1 17 -28 -1z"/>
<path d="M406 1161 c-4 -7 -5 -15 -2 -18 9 -9 19 4 14 18 -4 11 -6 11 -12 0z"/>
<path d="M767 1163 c-12 -11 -8 -23 8 -23 8 0 15 7 15 15 0 16 -12 20 -23 8z"/>
<path d="M950 1161 c0 -5 5 -11 11 -13 15 -5 0 -38 -18 -38 -8 0 -13 -6 -10
-12 4 -14 46 -12 61 2 5 6 5 15 -2 23 -7 8 -9 17 -5 21 4 4 1 11 -7 16 -19 12
-30 12 -30 1z"/>
<path d="M1096 1154 c-4 -9 -4 -19 -1 -22 2 -3 7 3 11 12 4 9 4 19 1 22 -2 3
-7 -3 -11 -12z"/>
<path d="M1550 1160 c0 -5 5 -10 11 -10 5 0 7 5 4 10 -3 6 -8 10 -11 10 -2 0
-4 -4 -4 -10z"/>
<path d="M3520 1160 c0 -5 7 -10 16 -10 8 0 12 5 9 10 -3 6 -10 10 -16 10 -5
0 -9 -4 -9 -10z"/>
<path d="M2695 1151 c-3 -6 -15 -11 -26 -11 -12 0 -19 -5 -16 -12 2 -7 15 -12
29 -11 19 1 24 -3 24 -20 -1 -13 5 -22 14 -22 10 0 14 8 12 23 -3 31 -28 67
-37 53z"/>
<path d="M2752 1149 c2 -7 10 -15 17 -17 8 -3 12 1 9 9 -2 7 -10 15 -17 17 -8
3 -12 -1 -9 -9z"/>
<path d="M3280 1142 c0 -10 6 -24 13 -31 10 -10 8 -14 -6 -22 -24 -14 -11 -32
14 -19 14 8 19 21 19 50 0 33 -3 40 -20 40 -13 0 -20 -7 -20 -18z"/>
<path d="M3440 1150 c0 -5 5 -10 11 -10 5 0 7 5 4 10 -3 6 -8 10 -11 10 -2 0
-4 -4 -4 -10z"/>
<path d="M485 1141 c-3 -5 -1 -12 4 -16 6 -3 7 -13 4 -22 -4 -10 -2 -14 7 -11
20 6 25 58 6 58 -8 0 -17 -4 -21 -9z"/>
<path d="M581 1134 c0 -11 3 -14 6 -6 3 7 2 16 -1 19 -3 4 -6 -2 -5 -13z"/>
<path d="M3580 1140 c0 -5 4 -10 9 -10 6 0 13 5 16 10 3 6 -1 10 -9 10 -9 0
-16 -4 -16 -10z"/>
<path d="M540 1130 c0 -5 4 -10 9 -10 6 0 13 5 16 10 3 6 -1 10 -9 10 -9 0
-16 -4 -16 -10z"/>
<path d="M685 1131 c-7 -12 12 -24 25 -16 11 7 4 25 -10 25 -5 0 -11 -4 -15
-9z"/>
<path d="M2930 1130 c0 -5 5 -10 10 -10 6 0 10 5 10 10 0 6 -4 10 -10 10 -5 0
-10 -4 -10 -10z"/>
<path d="M3050 1129 c0 -4 8 -14 18 -21 28 -22 43 -56 36 -84 -5 -20 -3 -25 7
-22 10 4 13 18 11 46 -2 22 2 43 7 47 16 9 13 25 -3 19 -7 -3 -16 1 -19 9 -6
15 -57 21 -57 6z"/>
<path d="M3495 1130 c-3 -5 1 -10 10 -10 9 0 13 5 10 10 -3 6 -8 10 -10 10 -2
0 -7 -4 -10 -10z"/>
<path d="M880 1115 c0 -8 5 -15 10 -15 6 0 8 -10 4 -24 -3 -13 -1 -27 6 -31 8
-5 7 -13 -4 -29 -17 -27 -6 -52 19 -42 12 4 16 15 13 38 -2 23 1 33 11 33 23
0 24 22 1 28 -11 3 -20 13 -20 25 0 11 -7 23 -16 26 -22 9 -24 8 -24 -9z"/>
<path d="M2385 1120 c-3 -5 -1 -10 4 -10 6 0 11 5 11 10 0 6 -2 10 -4 10 -3 0
-8 -4 -11 -10z"/>
<path d="M3395 1120 c3 -5 8 -10 11 -10 2 0 4 5 4 10 0 6 -5 10 -11 10 -5 0
-7 -4 -4 -10z"/>
<path d="M780 1110 c0 -5 6 -10 14 -10 8 0 18 5 21 10 3 6 -3 10 -14 10 -12 0
-21 -4 -21 -10z"/>
<path d="M1382 1108 c-7 -7 -12 -18 -12 -25 0 -18 27 -16 34 3 9 24 24 8 18
-21 -2 -14 0 -25 6 -25 18 0 20 24 5 53 -15 29 -32 34 -51 15z"/>
<path d="M1456 1112 c-3 -6 -1 -14 5 -17 15 -10 25 3 12 16 -7 7 -13 7 -17 1z"/>
<path d="M1575 1110 c3 -5 10 -10 16 -10 5 0 9 5 9 10 0 6 -7 10 -16 10 -8 0
-12 -4 -9 -10z"/>
<path d="M2772 1106 c-3 -6 0 -12 6 -14 7 -2 12 -10 12 -17 0 -7 -5 -15 -12
-17 -15 -5 -1 -28 17 -28 10 0 13 10 10 35 -4 26 -1 35 10 35 8 0 15 4 15 9 0
12 -50 9 -58 -3z"/>
<path d="M2992 1101 c2 -9 11 -15 21 -13 12 2 17 -4 17 -23 0 -17 7 -29 23
-35 21 -8 19 -11 -13 -14 -8 0 -16 -12 -17 -26 -1 -14 -4 -36 -5 -50 -2 -17 2
-25 12 -25 10 0 14 8 12 26 -1 14 6 34 18 47 18 19 19 28 11 57 -5 19 -17 42
-26 52 -23 22 -57 25 -53 4z"/>
<path d="M370 1100 c0 -5 4 -10 9 -10 6 0 13 5 16 10 3 6 -1 10 -9 10 -9 0
-16 -4 -16 -10z"/>
<path d="M565 1100 c-7 -12 2 -30 16 -30 5 0 9 9 9 20 0 21 -15 27 -25 10z"/>
<path d="M706 1103 c-11 -11 -6 -23 9 -23 8 0 15 4 15 9 0 13 -16 22 -24 14z"/>
<path d="M1050 1100 c0 -5 7 -10 15 -10 8 0 15 5 15 10 0 6 -7 10 -15 10 -8 0
-15 -4 -15 -10z"/>
<path d="M3220 1100 c0 -12 35 -31 44 -23 3 3 6 13 6 21 0 12 -3 12 -15 2 -10
-9 -15 -9 -15 -1 0 6 -4 11 -10 11 -5 0 -10 -4 -10 -10z"/>
<path d="M3557 1096 c-6 -15 -23 -16 -44 -3 -16 10 -17 -7 -3 -33 10 -18 11
-18 35 6 13 13 29 24 35 24 5 0 10 5 10 10 0 15 -27 12 -33 -4z"/>
<path d="M1106 1084 c-9 -22 -8 -24 9 -24 8 0 15 6 15 14 0 22 -17 28 -24 10z"/>
<path d="M3168 1086 c-10 -7 -18 -19 -18 -27 0 -8 3 -10 8 -4 4 6 14 10 22 10
8 0 16 8 18 18 4 20 -6 21 -30 3z"/>
<path d="M447 1083 c-4 -3 -7 -11 -7 -17 0 -6 5 -5 12 2 6 6 9 14 7 17 -3 3
-9 2 -12 -2z"/>
<path d="M1640 1080 c0 -5 4 -10 9 -10 6 0 13 5 16 10 3 6 -1 10 -9 10 -9 0
-16 -4 -16 -10z"/>
<path d="M2540 1080 c0 -5 7 -10 15 -10 8 0 15 5 15 10 0 6 -7 10 -15 10 -8 0
-15 -4 -15 -10z"/>
<path d="M2630 1074 c0 -9 5 -14 12 -12 18 6 21 28 4 28 -9 0 -16 -7 -16 -16z"/>
<path d="M3375 1080 c4 -6 11 -8 16 -5 14 9 11 15 -7 15 -8 0 -12 -5 -9 -10z"/>
<path d="M365 1070 c-3 -5 1 -10 9 -10 9 0 16 5 16 10 0 6 -4 10 -9 10 -6 0
-13 -4 -16 -10z"/>
<path d="M765 1069 c-4 -6 -5 -13 -2 -16 7 -7 27 6 27 18 0 12 -17 12 -25 -2z"/>
<path d="M842 1068 c6 -18 28 -21 28 -4 0 9 -7 16 -16 16 -9 0 -14 -5 -12 -12z"/>
<path d="M1010 1070 c0 -5 9 -10 20 -10 11 0 20 5 20 10 0 6 -9 10 -20 10 -11
0 -20 -4 -20 -10z"/>
<path d="M1560 1070 c0 -5 5 -10 10 -10 6 0 10 5 10 10 0 6 -4 10 -10 10 -5 0
-10 -4 -10 -10z"/>
<path d="M1695 1070 c-3 -5 1 -10 10 -10 9 0 13 5 10 10 -3 6 -8 10 -10 10 -2
0 -7 -4 -10 -10z"/>
<path d="M2666 1071 c-4 -5 -2 -12 3 -15 5 -4 12 -2 15 3 4 5 2 12 -3 15 -5 4
-12 2 -15 -3z"/>
<path d="M3321 1063 c-12 -13 -12 -16 0 -24 18 -11 33 5 23 24 -8 13 -11 13
-23 0z"/>
<path d="M527 1063 c-14 -13 -6 -25 13 -20 11 3 20 0 20 -6 0 -6 3 -7 6 -4 7
7 -14 37 -26 37 -3 0 -10 -3 -13 -7z"/>
<path d="M660 1060 c0 -5 5 -10 11 -10 5 0 7 5 4 10 -3 6 -8 10 -11 10 -2 0
-4 -4 -4 -10z"/>
<path d="M2870 1055 c0 -8 7 -15 15 -15 8 0 15 7 15 15 0 8 -7 15 -15 15 -8 0
-15 -7 -15 -15z"/>
<path d="M2930 1060 c0 -5 5 -10 11 -10 5 0 7 5 4 10 -3 6 -8 10 -11 10 -2 0
-4 -4 -4 -10z"/>
<path d="M2970 1060 c0 -5 5 -10 10 -10 6 0 10 5 10 10 0 6 -4 10 -10 10 -5 0
-10 -4 -10 -10z"/>
<path d="M3197 1053 c-12 -11 -8 -23 8 -23 8 0 15 7 15 15 0 16 -12 20 -23 8z"/>
<path d="M3236 1044 c-9 -23 -3 -26 30 -14 23 9 25 13 14 20 -22 14 -37 12
-44 -6z"/>
<path d="M3555 1050 c-3 -5 1 -10 10 -10 9 0 13 5 10 10 -3 6 -8 10 -10 10 -2
0 -7 -4 -10 -10z"/>
<path d="M471 1036 c-8 -10 -9 -16 -1 -21 5 -3 13 1 16 10 9 22 -1 29 -15 11z"/>
<path d="M593 1036 c4 -10 1 -16 -8 -16 -16 0 -21 -25 -7 -34 10 -6 52 21 52
34 0 5 -10 14 -22 21 -18 10 -20 9 -15 -5z"/>
<path d="M705 1040 c3 -5 11 -10 16 -10 6 0 7 5 4 10 -3 6 -11 10 -16 10 -6 0
-7 -4 -4 -10z"/>
<path d="M1357 1043 c-4 -3 -7 -13 -7 -21 0 -10 7 -12 27 -7 36 9 41 14 23 25
-18 11 -34 13 -43 3z"/>
<path d="M1470 1029 c0 -11 5 -17 10 -14 6 3 10 13 10 21 0 8 -4 14 -10 14 -5
0 -10 -9 -10 -21z"/>
<path d="M2692 1020 c1 -16 -4 -36 -10 -43 -13 -15 -6 -27 16 -27 10 0 13 8
10 30 -3 18 0 31 9 34 20 8 15 36 -6 36 -15 0 -19 -7 -19 -30z"/>
<path d="M3380 1040 c0 -5 7 -10 15 -10 8 0 15 5 15 10 0 6 -7 10 -15 10 -8 0
-15 -4 -15 -10z"/>
<path d="M3425 1041 c-6 -11 9 -23 19 -14 9 9 7 23 -3 23 -6 0 -12 -4 -16 -9z"/>
<path d="M1080 1026 c0 -9 7 -16 16 -16 17 0 14 22 -4 28 -7 2 -12 -3 -12 -12z"/>
<path d="M1508 1015 c-6 -28 8 -43 24 -27 8 8 8 15 0 25 -7 8 -9 17 -5 20 3 4
2 7 -4 7 -6 0 -13 -11 -15 -25z"/>
<path d="M1686 1033 c-11 -11 -6 -23 9 -23 8 0 15 4 15 9 0 13 -16 22 -24 14z"/>
<path d="M1865 1030 c3 -5 8 -10 11 -10 2 0 4 5 4 10 0 6 -5 10 -11 10 -5 0
-7 -4 -4 -10z"/>
<path d="M1968 1016 c-10 -11 -18 -14 -18 -8 0 15 -56 16 -65 2 -4 -6 -11 -8
-16 -5 -12 8 -12 -31 1 -55 7 -13 7 -21 -1 -25 -6 -5 -5 -11 5 -18 9 -7 17
-25 18 -42 1 -16 5 -34 9 -40 4 -5 16 -37 27 -70 15 -44 18 -63 10 -73 -14
-17 -27 1 -28 38 l-1 25 -15 -27 c-14 -28 -34 -38 -34 -18 0 6 5 10 10 10 6 0
10 9 10 19 0 11 -4 23 -10 26 -5 3 -10 15 -10 25 0 14 -5 18 -17 13 -11 -4
-14 -3 -9 5 4 6 -7 26 -24 43 -16 18 -30 35 -30 39 0 4 -13 13 -29 20 -16 6
-32 18 -35 26 -6 16 -46 20 -46 5 0 -6 8 -16 18 -23 9 -7 27 -28 40 -46 19
-27 20 -32 7 -32 -25 0 -13 -35 11 -36 34 -2 50 -15 30 -26 -24 -14 -19 -37
10 -49 15 -5 29 -7 32 -4 3 2 11 0 18 -5 13 -12 7 -53 -7 -44 -5 3 -9 -2 -9
-11 0 -9 4 -13 10 -10 17 11 51 -15 45 -34 -7 -24 21 -49 38 -32 9 9 9 16 -1
32 -16 26 -8 39 27 39 22 0 29 -7 40 -36 7 -19 10 -38 7 -41 -10 -10 23 -33
39 -27 9 4 21 -1 29 -11 7 -10 20 -16 28 -13 11 5 14 0 10 -17 -5 -29 17 -44
33 -21 15 20 -1 66 -24 66 -9 0 -11 7 -8 21 5 20 5 20 -13 4 -13 -12 -27 -15
-50 -10 -26 6 -30 10 -24 28 4 12 10 24 14 27 5 3 10 16 12 30 2 14 8 24 14
23 6 -1 9 11 6 28 -4 28 -2 30 19 27 24 -3 26 1 15 37 -3 11 -2 26 3 34 10 16
31 6 31 -15 0 -8 7 -14 15 -14 8 0 15 7 15 15 0 8 -6 15 -14 15 -25 0 -28 37
-6 79 22 43 28 78 9 51 -9 -12 -10 -11 -6 8 3 12 1 22 -4 22 -5 0 -9 11 -9 25
0 15 -9 31 -24 40 -33 22 -104 17 -128 -9z m-64 -351 c-4 -8 -11 -15 -16 -15
-6 0 -5 6 2 15 7 8 14 15 16 15 2 0 1 -7 -2 -15z"/>
<path d="M2494 1029 c-10 -17 13 -36 27 -22 12 12 4 33 -11 33 -5 0 -12 -5
-16 -11z"/>
<path d="M3140 1031 c0 -5 -3 -16 -6 -25 -4 -10 -1 -16 9 -16 20 0 29 14 21
34 -7 17 -24 22 -24 7z"/>
<path d="M425 1019 c-11 -17 1 -21 15 -4 8 9 8 15 2 15 -6 0 -14 -5 -17 -11z"/>
<path d="M670 1020 c0 -5 5 -10 10 -10 6 0 10 5 10 10 0 6 -4 10 -10 10 -5 0
-10 -4 -10 -10z"/>
<path d="M830 1016 c0 -9 5 -16 10 -16 6 0 10 4 10 9 0 6 -4 13 -10 16 -5 3
-10 -1 -10 -9z"/>
<path d="M1163 1019 c-13 -13 -6 -39 9 -39 6 0 8 9 5 20 -3 10 0 21 7 24 6 3
7 5 1 5 -6 1 -16 -4 -22 -10z"/>
<path d="M1595 1019 c-10 -14 -1 -21 19 -13 9 3 13 10 10 15 -7 12 -21 11 -29
-2z"/>
<path d="M1765 1020 c3 -5 10 -10 16 -10 5 0 9 5 9 10 0 6 -7 10 -16 10 -8 0
-12 -4 -9 -10z"/>
<path d="M2417 1023 c-17 -17 -5 -32 23 -30 35 2 36 5 13 23 -21 15 -27 17
-36 7z"/>
<path d="M2897 1024 c-8 -8 1 -24 14 -24 5 0 9 7 9 15 0 15 -12 20 -23 9z"/>
<path d="M3463 987 c-15 -21 -36 -48 -45 -58 -10 -10 -18 -22 -18 -26 0 -5 -8
-8 -17 -8 -19 0 -29 -20 -14 -30 13 -7 -2 -41 -31 -68 -10 -10 -16 -23 -12
-28 8 -13 -23 -59 -40 -59 -8 0 -13 12 -14 31 -1 37 -8 47 -24 31 -8 -8 -8
-15 2 -27 10 -12 10 -19 2 -27 -18 -18 -14 -40 6 -36 9 1 22 -1 29 -5 8 -5 20
7 35 34 13 23 29 52 36 65 7 13 20 24 29 24 11 0 14 7 11 25 -3 13 -1 22 4 19
5 -3 8 0 6 8 -5 20 41 78 57 72 10 -4 13 1 9 20 -3 21 -1 24 13 19 12 -5 15
-2 10 10 -3 8 1 21 9 27 18 16 18 27 0 27 -8 0 -27 -18 -43 -40z"/>
<path d="M947 982 c-19 -37 -11 -60 17 -49 13 5 14 12 6 32 -9 23 -8 26 7 23
10 -2 19 -13 21 -26 2 -12 10 -22 18 -22 16 0 19 16 4 25 -6 3 -7 17 -4 31 6
22 3 24 -23 22 -21 -1 -33 -10 -46 -36z"/>
<path d="M1417 1006 c-6 -15 1 -26 15 -26 4 0 8 9 8 20 0 23 -15 27 -23 6z"/>
<path d="M1560 1010 c0 -5 5 -10 11 -10 5 0 7 5 4 10 -3 6 -8 10 -11 10 -2 0
-4 -4 -4 -10z"/>
<path d="M2620 1005 c0 -9 5 -15 11 -13 6 2 11 8 11 13 0 5 -5 11 -11 13 -6 2
-11 -4 -11 -13z"/>
<path d="M2831 1006 c-12 -14 -5 -26 16 -26 15 0 18 26 4 34 -5 3 -14 0 -20
-8z"/>
<path d="M3640 1010 c0 -5 5 -10 11 -10 5 0 7 5 4 10 -3 6 -8 10 -11 10 -2 0
-4 -4 -4 -10z"/>
<path d="M745 1001 c-6 -11 9 -23 19 -14 9 9 7 23 -3 23 -6 0 -12 -4 -16 -9z"/>
<path d="M2747 1004 c-13 -13 -7 -24 14 -24 11 0 19 5 17 12 -5 14 -22 21 -31
12z"/>
<path d="M2960 996 c0 -8 5 -18 10 -21 6 -3 10 1 10 9 0 8 -4 18 -10 21 -5 3
-10 -1 -10 -9z"/>
<path d="M3222 998 c-11 -11 -17 -58 -8 -58 2 0 11 -3 20 -6 12 -5 15 1 14 30
-1 41 -9 51 -26 34z"/>
<path d="M3310 990 c0 -13 5 -20 13 -17 6 2 12 10 12 17 0 7 -6 15 -12 18 -8
2 -13 -5 -13 -18z"/>
<path d="M495 990 c-8 -13 4 -32 16 -25 12 8 12 35 0 35 -6 0 -13 -4 -16 -10z"/>
<path d="M3384 980 c3 -14 6 -28 6 -32 0 -5 5 -8 10 -8 15 0 12 24 -6 46 -15
18 -15 18 -10 -6z"/>
<path d="M420 980 c0 -5 7 -10 15 -10 8 0 15 5 15 10 0 6 -7 10 -15 10 -8 0
-15 -4 -15 -10z"/>
<path d="M1380 981 c0 -6 -9 -11 -20 -11 -13 0 -20 -7 -20 -20 0 -25 28 -27
37 -2 4 9 11 20 16 23 5 4 5 9 -2 13 -6 4 -11 2 -11 -3z"/>
<path d="M1568 983 c-10 -2 -18 -9 -18 -14 0 -6 5 -7 10 -4 6 3 10 -1 10 -9 0
-20 29 -21 36 -2 3 8 13 12 25 9 10 -3 19 0 19 6 0 6 -6 11 -12 11 -7 0 -22 2
-33 4 -11 2 -28 2 -37 -1z"/>
<path d="M1725 980 c3 -5 10 -10 16 -10 5 0 9 5 9 10 0 6 -7 10 -16 10 -8 0
-12 -4 -9 -10z"/>
<path d="M2370 979 c0 -5 5 -7 10 -4 6 3 10 8 10 11 0 2 -4 4 -10 4 -5 0 -10
-5 -10 -11z"/>
<path d="M370 964 c0 -8 5 -12 10 -9 6 3 10 10 10 16 0 5 -4 9 -10 9 -5 0 -10
-7 -10 -16z"/>
<path d="M1120 965 c0 -8 5 -15 10 -15 6 0 10 7 10 15 0 8 -4 15 -10 15 -5 0
-10 -7 -10 -15z"/>
<path d="M1455 970 c-11 -17 5 -31 19 -17 14 12 12 27 -4 27 -5 0 -12 -4 -15
-10z"/>
<path d="M1795 970 c3 -5 8 -10 11 -10 2 0 4 5 4 10 0 6 -5 10 -11 10 -5 0 -7
-4 -4 -10z"/>
<path d="M2506 973 c-11 -11 -6 -23 9 -23 8 0 15 4 15 9 0 13 -16 22 -24 14z"/>
<path d="M3073 965 c-3 -9 -2 -19 1 -23 8 -8 38 10 44 26 6 18 -38 14 -45 -3z"/>
<path d="M3142 955 c-16 -35 -15 -38 8 -18 11 10 20 23 20 30 0 22 -16 14 -28
-12z"/>
<path d="M3515 970 c3 -5 10 -10 16 -10 5 0 9 5 9 10 0 6 -7 10 -16 10 -8 0
-12 -4 -9 -10z"/>
<path d="M552 949 c-10 -15 -10 -25 -3 -32 12 -12 25 12 19 38 -2 13 -6 12
-16 -6z"/>
<path d="M602 954 c4 -21 22 -23 26 -1 2 10 -3 17 -13 17 -10 0 -15 -6 -13
-16z"/>
<path d="M670 960 c0 -5 5 -10 10 -10 6 0 10 5 10 10 0 6 -4 10 -10 10 -5 0
-10 -4 -10 -10z"/>
<path d="M755 960 c-3 -5 1 -10 9 -10 9 0 16 5 16 10 0 6 -4 10 -9 10 -6 0
-13 -4 -16 -10z"/>
<path d="M855 959 c-9 -13 -7 -15 28 -23 31 -7 35 1 10 20 -22 16 -30 17 -38
3z"/>
<path d="M1052 958 c6 -18 28 -21 28 -4 0 9 -7 16 -16 16 -9 0 -14 -5 -12 -12z"/>
<path d="M2265 960 c-8 -13 4 -32 16 -25 12 8 12 35 0 35 -6 0 -13 -4 -16 -10z"/>
<path d="M2624 959 c-10 -17 13 -36 27 -22 12 12 4 33 -11 33 -5 0 -12 -5 -16
-11z"/>
<path d="M1255 950 c-8 -12 20 -24 35 -15 5 3 10 10 10 16 0 12 -37 12 -45 -1z"/>
<path d="M1406 938 c-9 -34 -8 -38 9 -38 11 0 15 9 13 30 -3 35 -13 39 -22 8z"/>
<path d="M1520 940 c0 -11 5 -20 10 -20 6 0 10 9 10 20 0 11 -4 20 -10 20 -5
0 -10 -9 -10 -20z"/>
<path d="M2410 944 c0 -9 7 -14 17 -12 25 5 28 28 4 28 -12 0 -21 -6 -21 -16z"/>
<path d="M2833 948 c2 -7 10 -13 17 -13 7 0 15 6 18 13 2 7 -5 12 -18 12 -13
0 -20 -5 -17 -12z"/>
<path d="M2910 945 c0 -8 5 -15 10 -15 6 0 10 7 10 15 0 8 -4 15 -10 15 -5 0
-10 -7 -10 -15z"/>
<path d="M3333 940 c-9 -13 -9 -21 -2 -26 15 -9 28 8 20 28 -6 17 -7 16 -18
-2z"/>
<path d="M491 936 c-9 -10 -9 -16 -1 -21 17 -10 37 12 24 25 -8 8 -15 6 -23
-4z"/>
<path d="M1192 938 c6 -18 28 -21 28 -4 0 9 -7 16 -16 16 -9 0 -14 -5 -12 -12z"/>
<path d="M1305 941 c-3 -5 -1 -12 5 -16 5 -3 10 1 10 9 0 18 -6 21 -15 7z"/>
<path d="M2970 935 c0 -8 5 -15 10 -15 6 0 10 7 10 15 0 8 -4 15 -10 15 -5 0
-10 -7 -10 -15z"/>
<path d="M3600 941 c0 -5 7 -11 15 -15 9 -3 15 0 15 9 0 8 -7 15 -15 15 -8 0
-15 -4 -15 -9z"/>
<path d="M414 926 c-8 -22 -2 -27 16 -16 12 7 12 12 3 21 -10 10 -14 9 -19 -5z"/>
<path d="M1594 928 c-3 -5 -1 -15 6 -21 10 -9 14 -9 17 1 3 6 14 12 26 12 11
0 17 3 14 7 -12 11 -56 12 -63 1z"/>
<path d="M2365 916 c13 -19 13 -25 3 -29 -10 -3 -10 -7 -1 -17 6 -7 16 -9 23
-5 12 8 4 42 -16 62 -21 21 -26 15 -9 -11z"/>
<path d="M2750 925 c0 -8 7 -15 15 -15 8 0 15 7 15 15 0 8 -7 15 -15 15 -8 0
-15 -7 -15 -15z"/>
<path d="M680 915 c0 -8 5 -15 10 -15 6 0 10 7 10 15 0 8 -4 15 -10 15 -5 0
-10 -7 -10 -15z"/>
<path d="M990 921 c0 -7 -8 -10 -19 -6 -10 3 -24 -1 -31 -10 -7 -8 -16 -12
-21 -9 -5 3 -9 1 -9 -4 0 -13 52 -12 67 0 9 7 17 5 28 -6 21 -21 37 -20 33 0
-4 21 -48 52 -48 35z"/>
<path d="M1780 920 c0 -5 5 -10 10 -10 6 0 10 5 10 10 0 6 -4 10 -10 10 -5 0
-10 -4 -10 -10z"/>
<path d="M3515 920 c3 -5 11 -10 16 -10 6 0 7 5 4 10 -3 6 -11 10 -16 10 -6 0
-7 -4 -4 -10z"/>
<path d="M366 911 c-4 -7 -5 -15 -2 -18 9 -9 19 4 14 18 -4 11 -6 11 -12 0z"/>
<path d="M766 912 c-3 -6 -1 -14 5 -17 15 -10 25 3 12 16 -7 7 -13 7 -17 1z"/>
<path d="M1338 900 c-10 -11 -13 -22 -8 -25 6 -4 10 -2 10 4 0 6 7 8 16 4 15
-5 33 11 34 30 0 14 -35 5 -52 -13z"/>
<path d="M2212 908 c-7 -7 -12 -16 -12 -20 0 -12 28 -10 36 3 10 17 -10 31
-24 17z"/>
<path d="M2436 913 c-12 -12 -6 -33 9 -33 8 0 15 6 15 14 0 17 -14 28 -24 19z"/>
<path d="M3060 910 c0 -5 8 -15 18 -22 40 -30 50 -88 16 -88 -8 0 -14 -4 -14
-10 0 -5 10 -8 23 -6 18 2 22 10 23 42 1 21 5 48 9 59 6 16 5 17 -4 5 -10 -15
-12 -13 -15 12 -1 14 -56 22 -56 8z"/>
<path d="M3570 910 c0 -5 5 -10 10 -10 6 0 10 5 10 10 0 6 -4 10 -10 10 -5 0
-10 -4 -10 -10z"/>
<path d="M570 906 c0 -15 34 -44 46 -39 18 7 18 33 0 33 -8 0 -21 3 -30 6 -9
3 -16 3 -16 0z"/>
<path d="M1116 902 c-3 -6 -1 -14 5 -17 15 -10 25 3 12 16 -7 7 -13 7 -17 1z"/>
<path d="M1440 899 c0 -4 7 -12 16 -20 13 -10 17 -10 24 1 5 8 7 17 4 21 -5 9
-44 7 -44 -2z"/>
<path d="M2570 901 c0 -5 5 -13 10 -16 6 -3 10 -2 10 4 0 5 -4 13 -10 16 -5 3
-10 2 -10 -4z"/>
<path d="M2647 904 c-9 -10 2 -24 19 -24 8 0 14 7 14 15 0 15 -21 21 -33 9z"/>
<path d="M3170 906 c0 -2 7 -9 15 -16 12 -10 15 -10 15 4 0 9 -7 16 -15 16 -8
0 -15 -2 -15 -4z"/>
<path d="M305 890 c-3 -5 -1 -10 4 -10 6 0 11 5 11 10 0 6 -2 10 -4 10 -3 0
-8 -4 -11 -10z"/>
<path d="M850 890 c0 -5 7 -10 15 -10 8 0 15 5 15 10 0 6 -7 10 -15 10 -8 0
-15 -4 -15 -10z"/>
<path d="M1197 894 c-8 -8 1 -24 14 -24 5 0 9 7 9 15 0 15 -12 20 -23 9z"/>
<path d="M1265 889 c-5 -6 -1 -16 8 -21 9 -5 14 -15 11 -22 -7 -19 15 -31 29
-17 9 9 8 14 -3 21 -8 5 -15 17 -15 26 0 21 -20 30 -30 13z"/>
<path d="M1544 886 c-8 -22 3 -33 18 -18 9 9 9 15 0 24 -9 9 -13 7 -18 -6z"/>
<path d="M2270 889 c0 -5 -6 -7 -12 -3 -10 5 -10 4 -1 -6 6 -7 16 -9 22 -6 14
9 14 26 1 26 -5 0 -10 -5 -10 -11z"/>
<path d="M2300 885 c0 -8 2 -15 4 -15 2 0 6 7 10 15 3 8 1 15 -4 15 -6 0 -10
-7 -10 -15z"/>
<path d="M2767 893 c-13 -12 -7 -23 13 -23 11 0 20 7 20 15 0 15 -21 21 -33 8z"/>
<path d="M3600 885 c-10 -12 -10 -15 3 -15 19 0 31 16 18 24 -5 3 -14 -1 -21
-9z"/>
<path d="M420 875 c0 -8 5 -15 10 -15 6 0 10 7 10 15 0 8 -4 15 -10 15 -5 0
-10 -7 -10 -15z"/>
<path d="M490 875 c0 -8 7 -15 15 -15 8 0 15 7 15 15 0 8 -7 15 -15 15 -8 0
-15 -7 -15 -15z"/>
<path d="M1655 880 c-3 -5 -4 -14 0 -20 8 -13 35 -1 35 16 0 16 -26 19 -35 4z"/>
<path d="M2710 881 c0 -5 -3 -16 -6 -25 -4 -12 0 -16 15 -16 22 0 25 8 15 34
-7 17 -24 22 -24 7z"/>
<path d="M2866 875 c4 -8 10 -15 15 -15 5 0 9 7 9 15 0 8 -7 15 -15 15 -9 0
-12 -6 -9 -15z"/>
<path d="M2986 881 c-3 -5 1 -14 8 -20 16 -13 32 2 21 19 -8 12 -22 13 -29 1z"/>
<path d="M3035 873 c4 -10 7 -25 8 -33 0 -26 18 -42 33 -29 19 15 18 20 -10
52 -26 31 -42 36 -31 10z"/>
<path d="M3216 882 c-8 -13 11 -35 23 -28 6 4 11 11 11 16 0 11 -28 21 -34 12z"/>
<path d="M3317 883 c-12 -11 -8 -23 8 -23 8 0 15 7 15 15 0 16 -12 20 -23 8z"/>
<path d="M3446 883 c-12 -12 -6 -33 9 -33 8 0 15 6 15 14 0 17 -14 28 -24 19z"/>
<path d="M966 864 c-11 -29 -6 -44 14 -44 11 0 20 6 20 14 0 21 -11 46 -20 46
-4 0 -11 -7 -14 -16z"/>
<path d="M735 859 c-10 -15 3 -25 16 -12 7 7 7 13 1 17 -6 3 -14 1 -17 -5z"/>
<path d="M865 860 c-10 -17 12 -37 25 -24 8 8 6 15 -4 23 -10 9 -16 9 -21 1z"/>
<path d="M1391 861 c-14 -4 -26 -12 -29 -19 -6 -19 27 -14 50 8 23 21 19 23
-21 11z"/>
<path d="M1701 854 c0 -11 3 -14 6 -6 3 7 2 16 -1 19 -3 4 -6 -2 -5 -13z"/>
<path d="M2183 855 c-7 -21 -2 -25 25 -19 18 5 19 8 7 20 -18 18 -24 18 -32
-1z"/>
<path d="M2320 859 c0 -5 5 -7 10 -4 6 3 10 8 10 11 0 2 -4 4 -10 4 -5 0 -10
-5 -10 -11z"/>
<path d="M360 850 c0 -5 6 -10 14 -10 8 0 18 5 21 10 3 6 -3 10 -14 10 -12 0
-21 -4 -21 -10z"/>
<path d="M542 839 c-15 -23 -4 -43 16 -30 8 5 10 15 5 29 l-8 22 -13 -21z"/>
<path d="M910 850 c0 -5 5 -10 10 -10 6 0 10 5 10 10 0 6 -4 10 -10 10 -5 0
-10 -4 -10 -10z"/>
<path d="M1477 853 c-12 -11 -8 -23 8 -23 8 0 15 7 15 15 0 16 -12 20 -23 8z"/>
<path d="M1594 846 c-8 -22 3 -33 18 -18 9 9 9 15 0 24 -9 9 -13 7 -18 -6z"/>
<path d="M1820 850 c0 -5 7 -10 16 -10 8 0 12 5 9 10 -3 6 -10 10 -16 10 -5 0
-9 -4 -9 -10z"/>
<path d="M2620 845 c0 -8 7 -15 15 -15 8 0 15 7 15 15 0 8 -7 15 -15 15 -8 0
-15 -7 -15 -15z"/>
<path d="M3511 844 c0 -11 3 -14 6 -6 3 7 2 16 -1 19 -3 4 -6 -2 -5 -13z"/>
<path d="M3540 850 c0 -5 5 -10 10 -10 6 0 10 5 10 10 0 6 -4 10 -10 10 -5 0
-10 -4 -10 -10z"/>
<path d="M596 842 c-3 -2 -2 -10 1 -18 5 -15 33 -20 33 -6 0 4 12 8 27 8 14
-1 28 4 30 10 3 10 -81 16 -91 6z"/>
<path d="M795 841 c-7 -12 12 -24 25 -16 11 7 4 25 -10 25 -5 0 -11 -4 -15 -9z"/>
<path d="M1062 839 c2 -6 8 -10 13 -10 5 0 11 4 13 10 2 6 -4 11 -13 11 -9 0
-15 -5 -13 -11z"/>
<path d="M1125 840 c3 -5 10 -10 16 -10 5 0 9 5 9 10 0 6 -7 10 -16 10 -8 0
-12 -4 -9 -10z"/>
<path d="M1427 828 c-10 -34 -9 -38 8 -38 16 0 20 27 6 48 -6 10 -10 8 -14
-10z"/>
<path d="M3183 831 c-3 -12 -10 -21 -16 -21 -6 0 -8 -3 -4 -6 10 -10 47 7 47
21 0 24 -21 28 -27 6z"/>
<path d="M421 833 c0 -7 -8 -13 -16 -13 -16 0 -20 -15 -7 -24 15 -9 34 11 29
30 -3 11 -5 13 -6 7z"/>
<path d="M460 822 c0 -11 7 -18 20 -18 23 0 25 7 8 24 -17 17 -28 15 -28 -6z"/>
<path d="M2346 831 c-7 -10 22 -37 30 -28 9 8 -3 37 -15 37 -5 0 -12 -4 -15
-9z"/>
<path d="M2432 824 c4 -21 22 -23 26 -1 2 10 -3 17 -13 17 -10 0 -15 -6 -13
-16z"/>
<path d="M2566 833 c-11 -11 -6 -23 9 -23 8 0 15 4 15 9 0 13 -16 22 -24 14z"/>
<path d="M2965 830 c-3 -6 1 -13 10 -16 19 -8 30 0 20 15 -8 14 -22 14 -30 1z"/>
<path d="M3260 831 c0 -6 5 -13 10 -16 6 -3 10 1 10 9 0 9 -4 16 -10 16 -5 0
-10 -4 -10 -9z"/>
<path d="M3315 831 c-6 -11 9 -23 19 -14 9 9 7 23 -3 23 -6 0 -12 -4 -16 -9z"/>
<path d="M3675 830 c3 -5 8 -10 11 -10 2 0 4 5 4 10 0 6 -5 10 -11 10 -5 0 -7
-4 -4 -10z"/>
<path d="M3725 830 c3 -5 8 -10 11 -10 2 0 4 5 4 10 0 6 -5 10 -11 10 -5 0 -7
-4 -4 -10z"/>
<path d="M1220 815 c12 -15 30 -12 30 6 0 5 -10 9 -21 9 -18 0 -19 -2 -9 -15z"/>
<path d="M1553 815 c-8 -22 6 -33 17 -15 13 20 12 30 0 30 -6 0 -13 -7 -17
-15z"/>
<path d="M2240 819 c0 -5 5 -7 10 -4 6 3 10 8 10 11 0 2 -4 4 -10 4 -5 0 -10
-5 -10 -11z"/>
<path d="M2300 820 c0 -5 -6 -10 -14 -10 -8 0 -16 -7 -20 -15 -8 -22 17 -18
37 5 20 23 21 30 7 30 -5 0 -10 -4 -10 -10z"/>
<path d="M2770 815 c0 -8 7 -15 15 -15 8 0 15 7 15 15 0 8 -7 15 -15 15 -8 0
-15 -7 -15 -15z"/>
<path d="M2870 814 c0 -9 5 -14 12 -12 18 6 21 28 4 28 -9 0 -16 -7 -16 -16z"/>
<path d="M2920 820 c0 -5 5 -10 10 -10 6 0 10 5 10 10 0 6 -4 10 -10 10 -5 0
-10 -4 -10 -10z"/>
<path d="M3456 815 c-3 -9 0 -15 9 -15 8 0 15 7 15 15 0 8 -4 15 -9 15 -5 0
-11 -7 -15 -15z"/>
<path d="M355 809 c-4 -6 -3 -15 3 -21 6 -6 11 -4 15 6 7 18 -9 31 -18 15z"/>
<path d="M2691 806 c-9 -10 -8 -15 3 -19 16 -6 40 16 29 26 -10 11 -19 8 -32
-7z"/>
<path d="M3557 798 c-4 -12 -5 -24 -3 -26 7 -7 45 31 40 40 -10 16 -32 8 -37
-14z"/>
<path d="M866 788 c-15 -14 -17 -21 -8 -30 16 -16 35 3 30 29 -3 19 -3 19 -22
1z"/>
<path d="M1012 789 c3 -24 42 -37 54 -18 8 13 -4 25 -34 34 -20 6 -23 4 -20
-16z"/>
<path d="M1291 798 c0 -9 -7 -18 -13 -21 -10 -4 -10 -7 -1 -17 10 -11 13 -10
19 3 3 9 4 24 1 34 -4 15 -5 15 -6 1z"/>
<path d="M1347 803 c-12 -11 -8 -23 8 -23 8 0 15 7 15 15 0 16 -12 20 -23 8z"/>
<path d="M1645 800 c-7 -12 2 -30 16 -30 12 0 12 27 0 35 -5 3 -12 1 -16 -5z"/>
<path d="M603 785 c-19 -21 -16 -47 5 -43 10 2 18 14 20 31 4 30 -6 34 -25 12z"/>
<path d="M931 784 c0 -11 3 -14 6 -6 3 7 2 16 -1 19 -3 4 -6 -2 -5 -13z"/>
<path d="M955 790 c-4 -7 -3 -16 2 -21 12 -12 45 0 40 15 -5 15 -34 19 -42 6z"/>
<path d="M3720 790 c0 -5 7 -10 15 -10 8 0 15 5 15 10 0 6 -7 10 -15 10 -8 0
-15 -4 -15 -10z"/>
<path d="M297 783 c-4 -3 -7 -11 -7 -17 0 -6 5 -5 12 2 6 6 9 14 7 17 -3 3 -9
2 -12 -2z"/>
<path d="M707 784 c-8 -8 1 -24 14 -24 5 0 9 7 9 15 0 15 -12 20 -23 9z"/>
<path d="M780 781 c0 -5 5 -13 10 -16 6 -3 10 -2 10 4 0 5 -4 13 -10 16 -5 3
-10 2 -10 -4z"/>
<path d="M1380 779 c0 -5 5 -7 10 -4 6 3 10 8 10 11 0 2 -4 4 -10 4 -5 0 -10
-5 -10 -11z"/>
<path d="M1484 776 c-8 -22 3 -33 18 -18 9 9 9 15 0 24 -9 9 -13 7 -18 -6z"/>
<path d="M1575 777 c-4 -10 -5 -21 -1 -24 10 -10 18 4 13 24 -4 17 -4 17 -12
0z"/>
<path d="M2394 779 c-3 -6 -2 -15 4 -21 13 -13 32 -2 32 18 0 16 -26 19 -36 3z"/>
<path d="M2606 781 c-3 -5 1 -14 8 -20 16 -13 32 2 21 19 -8 12 -22 13 -29 1z"/>
<path d="M3035 780 c-3 -5 -4 -14 -1 -19 4 -5 2 -21 -4 -36 -7 -20 -7 -31 1
-41 16 -20 30 -7 27 26 -1 15 4 35 11 44 7 8 10 20 6 26 -8 13 -32 13 -40 0z"/>
<path d="M3156 781 c-4 -6 -3 -19 2 -28 5 -10 6 -27 1 -38 -4 -11 -8 -33 -8
-48 -1 -24 -4 -27 -21 -22 -14 5 -20 2 -20 -9 0 -9 7 -16 15 -16 18 0 21 -45
4 -56 -6 -3 -8 -15 -6 -26 7 -25 -2 -50 -14 -42 -6 3 -7 -5 -3 -21 4 -15 2
-36 -4 -48 -12 -25 -42 -145 -42 -170 0 -12 -8 -17 -28 -17 -16 0 -32 3 -35 6
-7 7 -129 17 -179 16 -22 -1 -28 3 -28 19 0 12 -5 19 -12 16 -7 -2 -12 -11
-10 -21 4 -21 -31 -22 -52 -1 -17 17 -36 20 -36 4 0 -5 -8 -9 -17 -8 -10 1
-60 1 -110 0 l-93 -1 0 -60 c0 -33 4 -60 10 -60 6 0 10 7 10 15 0 19 34 19 50
0 8 -10 17 -12 24 -6 6 5 44 6 91 1 44 -5 83 -9 88 -9 4 -1 7 -10 7 -21 0 -26
20 -26 27 0 4 16 10 19 27 14 11 -4 73 -6 137 -5 113 1 116 1 128 -23 8 -13
14 -45 15 -70 1 -53 23 -64 28 -14 2 26 8 32 32 35 23 3 27 1 22 -12 -3 -9 -6
-21 -6 -26 0 -5 -6 -9 -14 -9 -8 0 -18 -4 -21 -10 -4 -6 12 -10 39 -10 39 0
46 3 46 20 0 11 4 20 8 20 14 0 12 48 -3 54 -22 8 -18 33 5 39 22 6 28 43 8
50 -9 3 -5 11 11 24 22 18 22 51 0 38 -16 -11 -9 11 11 33 24 25 26 52 5 52
-8 0 -15 -9 -15 -20 0 -11 -4 -20 -10 -20 -19 0 -10 33 15 56 24 22 35 52 15
39 -6 -4 -10 14 -10 45 0 43 3 53 20 57 11 3 20 14 20 24 0 11 5 19 10 19 6 0
10 5 10 11 0 6 -7 8 -16 5 -27 -10 -10 18 20 32 23 11 26 18 21 41 -5 22 0 34
26 59 18 18 36 32 41 32 4 0 8 4 8 8 0 5 -9 8 -20 7 -13 -1 -35 -23 -60 -62
-26 -41 -48 -63 -65 -67 -23 -6 -26 -11 -21 -31 5 -18 2 -25 -9 -25 -8 0 -16
-4 -16 -10 -1 -5 -2 -14 -3 -19 0 -5 -4 -13 -8 -17 -5 -4 -8 -22 -8 -41 0 -26
-4 -33 -19 -33 -30 0 -35 -29 -6 -36 14 -3 25 -9 25 -13 0 -12 -15 -26 -29
-26 -23 0 -25 -26 -2 -32 30 -8 27 -41 -4 -49 -31 -8 -32 -17 -4 -36 28 -18
19 -59 -11 -51 -17 5 -18 13 -15 92 3 47 7 106 10 131 3 25 6 58 6 73 1 19 6
26 15 23 8 -3 14 1 14 10 0 9 -5 12 -12 8 -8 -5 -10 7 -5 45 3 28 9 57 13 63
4 7 6 33 5 59 -2 39 1 49 18 59 21 11 29 40 12 40 -5 0 -16 3 -24 6 -8 3 -18
1 -21 -5z m7 -673 c-5 -17 -7 -17 -23 -3 -9 8 -20 12 -23 8 -4 -3 -7 1 -7 10
0 17 41 28 51 14 4 -5 4 -18 2 -29z"/>
<path d="M3285 780 c-3 -5 -1 -10 4 -10 6 0 11 5 11 10 0 6 -2 10 -4 10 -3 0
-8 -4 -11 -10z"/>
<path d="M3382 782 c-13 -9 -6 -42 9 -42 11 0 30 36 22 44 -8 8 -15 7 -31 -2z"/>
<path d="M3660 776 c0 -9 5 -16 10 -16 6 0 10 4 10 9 0 6 -4 13 -10 16 -5 3
-10 -1 -10 -9z"/>
<path d="M512 764 c4 -21 22 -23 26 -1 2 10 -3 17 -13 17 -10 0 -15 -6 -13
-16z"/>
<path d="M1120 765 c0 -8 5 -15 10 -15 6 0 10 7 10 15 0 8 -4 15 -10 15 -5 0
-10 -7 -10 -15z"/>
<path d="M1215 769 c-10 -15 1 -23 20 -15 9 3 13 10 10 16 -8 13 -22 13 -30
-1z"/>
<path d="M2195 769 c-4 -6 -5 -13 -2 -16 7 -7 27 6 27 18 0 12 -17 12 -25 -2z"/>
<path d="M2480 770 c0 -5 5 -10 10 -10 6 0 10 5 10 10 0 6 -4 10 -10 10 -5 0
-10 -4 -10 -10z"/>
<path d="M2530 770 c0 -5 5 -10 10 -10 6 0 10 5 10 10 0 6 -4 10 -10 10 -5 0
-10 -4 -10 -10z"/>
<path d="M2750 770 c-12 -7 -12 -12 -3 -21 10 -10 14 -9 19 5 8 22 2 27 -16
16z"/>
<path d="M2890 765 c0 -8 7 -15 15 -15 8 0 15 7 15 15 0 8 -7 15 -15 15 -8 0
-15 -7 -15 -15z"/>
<path d="M2990 771 c0 -6 -7 -8 -15 -5 -9 4 -15 0 -15 -10 0 -20 17 -21 36 -2
9 9 10 17 4 21 -5 3 -10 2 -10 -4z"/>
<path d="M3500 766 c0 -9 7 -16 16 -16 17 0 14 22 -4 28 -7 2 -12 -3 -12 -12z"/>
<path d="M370 760 c0 -18 5 -24 21 -25 14 -1 15 2 6 17 -13 20 -27 24 -27 8z"/>
<path d="M430 755 c0 -9 5 -15 11 -13 6 2 11 8 11 13 0 5 -5 11 -11 13 -6 2
-11 -4 -11 -13z"/>
<path d="M653 764 c4 -4 -2 -19 -12 -33 -21 -30 -17 -51 9 -51 15 0 18 8 18
45 0 26 -4 45 -10 45 -6 0 -8 -3 -5 -6z"/>
<path d="M1526 746 c-8 -32 -1 -45 16 -28 8 8 8 18 1 34 -10 22 -10 22 -17 -6z"/>
<path d="M2683 763 c4 -3 2 -12 -5 -20 -14 -17 2 -36 21 -24 15 10 6 51 -11
51 -6 0 -8 -3 -5 -7z"/>
<path d="M3430 756 c0 -9 7 -16 16 -16 17 0 14 22 -4 28 -7 2 -12 -3 -12 -12z"/>
<path d="M3625 760 c3 -5 8 -10 11 -10 2 0 4 5 4 10 0 6 -5 10 -11 10 -5 0 -7
-4 -4 -10z"/>
<path d="M311 746 c-8 -10 -9 -16 -1 -21 5 -3 13 1 16 10 9 22 -1 29 -15 11z"/>
<path d="M915 751 c3 -5 1 -12 -5 -16 -15 -9 -12 -35 4 -35 8 0 17 4 20 8 7
12 -5 52 -16 52 -5 0 -7 -4 -3 -9z"/>
<path d="M978 749 c-23 -13 -11 -39 18 -39 13 0 24 -6 24 -12 0 -9 4 -8 10 2
14 22 12 40 -5 40 -8 0 -15 5 -15 10 0 12 -10 12 -32 -1z"/>
<path d="M1400 745 c0 -8 9 -15 20 -15 11 0 20 7 20 15 0 8 -9 15 -20 15 -11
0 -20 -7 -20 -15z"/>
<path d="M2270 746 c0 -21 21 -31 30 -15 5 7 6 17 4 21 -9 14 -34 9 -34 -6z"/>
<path d="M2330 746 c0 -8 4 -17 9 -20 11 -7 33 18 24 27 -12 12 -33 7 -33 -7z"/>
<path d="M2825 750 c3 -5 10 -10 16 -10 5 0 9 5 9 10 0 6 -7 10 -16 10 -8 0
-12 -4 -9 -10z"/>
<path d="M3086 743 c-9 -23 -1 -26 23 -11 26 16 27 23 2 25 -11 1 -22 -5 -25
-14z"/>
<path d="M3580 735 c0 -8 5 -15 10 -15 6 0 10 7 10 15 0 8 -4 15 -10 15 -5 0
-10 -7 -10 -15z"/>
<path d="M821 726 c-12 -14 -5 -26 16 -26 15 0 18 26 4 34 -5 3 -14 0 -20 -8z"/>
<path d="M1080 726 c0 -9 7 -16 16 -16 17 0 14 22 -4 28 -7 2 -12 -3 -12 -12z"/>
<path d="M1317 734 c-9 -10 2 -24 19 -24 8 0 14 7 14 15 0 15 -21 21 -33 9z"/>
<path d="M1657 734 c-8 -8 1 -24 14 -24 5 0 9 7 9 15 0 15 -12 20 -23 9z"/>
<path d="M1710 731 c0 -6 5 -13 10 -16 6 -3 10 1 10 9 0 9 -4 16 -10 16 -5 0
-10 -4 -10 -9z"/>
<path d="M2120 724 c0 -14 3 -14 15 -4 8 7 15 14 15 16 0 2 -7 4 -15 4 -8 0
-15 -7 -15 -16z"/>
<path d="M2170 725 c-10 -12 -10 -15 4 -15 9 0 16 7 16 15 0 8 -2 15 -4 15 -2
0 -9 -7 -16 -15z"/>
<path d="M2240 731 c0 -6 5 -13 10 -16 6 -3 10 1 10 9 0 9 -4 16 -10 16 -5 0
-10 -4 -10 -9z"/>
<path d="M2621 726 c-12 -14 -5 -26 15 -26 17 0 25 27 9 34 -7 2 -18 -1 -24
-8z"/>
<path d="M493 723 c-18 -7 -16 -43 2 -43 9 0 15 9 15 25 0 14 -1 25 -2 24 -2
0 -9 -3 -15 -6z"/>
<path d="M557 723 c-13 -12 -7 -33 8 -33 8 0 15 9 15 20 0 20 -11 26 -23 13z"/>
<path d="M705 720 c-3 -6 1 -13 10 -16 19 -8 30 0 20 15 -8 14 -22 14 -30 1z"/>
<path d="M1232 719 c2 -6 8 -10 13 -10 5 0 11 4 13 10 2 6 -4 11 -13 11 -9 0
-15 -5 -13 -11z"/>
<path d="M2377 723 c-11 -10 -8 -25 3 -18 6 3 10 -1 10 -10 0 -23 34 -15 38 9
3 15 0 17 -14 12 -9 -4 -20 -2 -24 4 -3 6 -9 7 -13 3z"/>
<path d="M3190 715 c0 -8 5 -15 10 -15 6 0 10 7 10 15 0 8 -4 15 -10 15 -5 0
-10 -7 -10 -15z"/>
<path d="M3680 715 c0 -8 7 -15 15 -15 8 0 15 7 15 15 0 8 -7 15 -15 15 -8 0
-15 -7 -15 -15z"/>
<path d="M438 708 c-6 -16 1 -38 12 -38 15 0 19 28 6 40 -10 8 -15 7 -18 -2z"/>
<path d="M770 710 c0 -5 5 -10 11 -10 5 0 7 5 4 10 -3 6 -8 10 -11 10 -2 0 -4
-4 -4 -10z"/>
<path d="M1162 708 c6 -18 28 -21 28 -4 0 9 -7 16 -16 16 -9 0 -14 -5 -12 -12z"/>
<path d="M1392 700 c-16 -26 -15 -40 2 -40 21 0 27 15 18 39 -7 21 -7 21 -20
1z"/>
<path d="M1451 706 c-8 -10 -9 -16 -1 -21 13 -8 30 3 30 21 0 18 -14 18 -29 0z"/>
<path d="M1584 706 c-8 -22 3 -33 18 -18 9 9 9 15 0 24 -9 9 -13 7 -18 -6z"/>
<path d="M2203 688 c2 -36 29 -47 35 -15 2 9 -1 17 -7 17 -6 0 -11 7 -11 15 0
8 -4 15 -9 15 -5 0 -9 -15 -8 -32z"/>
<path d="M3500 706 c0 -7 7 -19 15 -26 9 -8 15 -8 15 -2 0 6 3 17 6 26 4 12 0
16 -15 16 -12 0 -21 -6 -21 -14z"/>
<path d="M360 695 c0 -9 6 -12 15 -9 8 4 12 10 9 15 -8 14 -24 10 -24 -6z"/>
<path d="M2535 701 c-3 -5 -1 -12 5 -16 12 -7 30 2 30 16 0 12 -27 12 -35 0z"/>
<path d="M2832 694 c3 -17 21 -21 26 -6 1 5 -4 12 -13 16 -11 4 -15 1 -13 -10z"/>
<path d="M2900 695 c0 -8 7 -15 15 -15 8 0 15 7 15 15 0 8 -7 15 -15 15 -8 0
-15 -7 -15 -15z"/>
<path d="M2972 698 c5 -15 28 -18 29 -3 0 6 -7 12 -17 13 -10 3 -15 -1 -12
-10z"/>
<path d="M320 685 c0 -8 4 -15 10 -15 5 0 7 7 4 15 -4 8 -8 15 -10 15 -2 0 -4
-7 -4 -15z"/>
<path d="M954 687 c-4 -12 1 -26 13 -40 11 -12 18 -28 16 -35 -3 -7 0 -18 6
-25 7 -9 5 -21 -8 -41 -10 -15 -21 -24 -24 -19 -9 14 -67 3 -67 -13 0 -7 6
-11 14 -8 7 3 16 -2 20 -12 6 -16 8 -16 26 1 15 14 23 15 33 6 21 -16 38 8 33
47 -2 18 0 32 4 32 16 0 21 35 6 45 -8 6 -14 20 -13 30 1 12 -6 21 -18 23 -11
2 -23 9 -27 15 -4 8 -9 5 -14 -6z"/>
<path d="M2747 694 c-8 -8 1 -24 14 -24 5 0 9 7 9 15 0 15 -12 20 -23 9z"/>
<path d="M3087 693 c-10 -3 -16 -10 -14 -16 6 -19 41 -14 45 6 4 17 1 18 -31
10z"/>
<path d="M3642 686 c1 -10 8 -17 13 -17 15 1 12 24 -3 29 -9 3 -13 -2 -10 -12z"/>
<path d="M247 683 c-4 -3 -7 -11 -7 -17 0 -6 5 -5 12 2 6 6 9 14 7 17 -3 3 -9
2 -12 -2z"/>
<path d="M1325 680 c-11 -17 5 -32 21 -19 7 6 11 15 8 20 -7 12 -21 11 -29 -1z"/>
<path d="M1526 674 c-8 -21 -8 -21 12 -26 15 -4 18 -1 14 18 -5 28 -17 31 -26
8z"/>
<path d="M2075 679 c-12 -19 5 -23 22 -6 16 16 16 17 1 17 -9 0 -20 -5 -23
-11z"/>
<path d="M2122 670 c-7 -12 -8 -20 -2 -20 5 0 10 -7 10 -15 0 -20 36 -19 44 1
7 19 -1 34 -19 34 -7 0 -15 5 -17 10 -2 6 -9 1 -16 -10z"/>
<path d="M2290 676 c0 -10 9 -16 21 -16 24 0 21 23 -4 28 -10 2 -17 -3 -17
-12z"/>
<path d="M3450 670 c0 -13 5 -20 13 -17 6 2 12 10 12 17 0 7 -6 15 -12 18 -8
2 -13 -5 -13 -18z"/>
<path d="M3570 675 c0 -8 5 -15 10 -15 6 0 10 7 10 15 0 8 -4 15 -10 15 -5 0
-10 -7 -10 -15z"/>
<path d="M892 653 c-12 -14 -16 -23 -9 -20 26 9 47 -12 40 -43 -5 -26 -3 -30
17 -30 20 0 22 4 16 32 -3 18 -11 35 -16 38 -6 4 -8 14 -5 22 10 26 -20 27
-43 1z"/>
<path d="M1770 665 c0 -8 5 -15 10 -15 6 0 10 7 10 15 0 8 -4 15 -10 15 -5 0
-10 -7 -10 -15z"/>
<path d="M2640 665 c0 -10 7 -15 18 -13 21 4 19 22 -2 26 -10 2 -16 -3 -16
-13z"/>
<path d="M3755 670 c3 -5 8 -10 11 -10 2 0 4 5 4 10 0 6 -5 10 -11 10 -5 0 -7
-4 -4 -10z"/>
<path d="M380 661 c0 -6 5 -13 10 -16 6 -3 10 1 10 9 0 9 -4 16 -10 16 -5 0
-10 -4 -10 -9z"/>
<path d="M1076 663 c-11 -11 -6 -23 9 -23 8 0 15 4 15 9 0 13 -16 22 -24 14z"/>
<path d="M1165 660 c-4 -6 -3 -16 3 -22 6 -6 12 -6 17 2 4 6 3 16 -3 22 -6 6
-12 6 -17 -2z"/>
<path d="M1230 654 c0 -9 7 -14 17 -12 25 5 28 28 4 28 -12 0 -21 -6 -21 -16z"/>
<path d="M1595 660 c-8 -13 4 -32 16 -25 12 8 12 35 0 35 -6 0 -13 -4 -16 -10z"/>
<path d="M1680 661 c0 -6 5 -13 10 -16 6 -3 10 1 10 9 0 9 -4 16 -10 16 -5 0
-10 -4 -10 -9z"/>
<path d="M2353 644 c-8 -18 -8 -26 4 -35 22 -19 36 3 20 33 l-13 25 -11 -23z"/>
<path d="M2414 659 c-10 -17 13 -36 27 -22 12 12 4 33 -11 33 -5 0 -12 -5 -16
-11z"/>
<path d="M2554 659 c-8 -14 18 -31 30 -19 9 9 0 30 -14 30 -5 0 -12 -5 -16
-11z"/>
<path d="M2605 660 c-3 -5 -1 -10 4 -10 6 0 11 5 11 10 0 6 -2 10 -4 10 -3 0
-8 -4 -11 -10z"/>
<path d="M3354 659 c-10 -17 13 -36 27 -22 12 12 4 33 -11 33 -5 0 -12 -5 -16
-11z"/>
<path d="M270 644 c0 -8 5 -12 10 -9 6 3 10 10 10 16 0 5 -4 9 -10 9 -5 0 -10
-7 -10 -16z"/>
<path d="M540 641 c0 -11 5 -23 10 -26 6 -3 10 -16 10 -28 0 -16 3 -18 12 -9
10 10 16 8 30 -10 17 -22 18 -22 18 -3 0 12 -10 25 -22 30 -14 6 -24 21 -26
38 -4 31 -32 38 -32 8z"/>
<path d="M626 645 c-2 -7 4 -21 14 -30 11 -10 17 -22 14 -27 -3 -5 -2 -17 2
-26 4 -9 8 -26 8 -37 1 -23 41 -34 59 -16 13 13 6 22 -22 24 -26 2 -27 13 -1
27 11 6 20 17 20 25 0 18 -12 19 -29 3 -10 -11 -11 -10 -6 5 5 12 2 17 -10 17
-9 0 -15 6 -12 13 2 6 9 12 15 12 7 0 12 4 12 10 0 15 -58 15 -64 0z"/>
<path d="M722 648 c6 -18 28 -21 28 -4 0 9 -7 16 -16 16 -9 0 -14 -5 -12 -12z"/>
<path d="M815 650 c-7 -12 2 -30 16 -30 12 0 12 27 0 35 -5 3 -12 1 -16 -5z"/>
<path d="M1426 653 c-2 -3 3 -13 11 -23 17 -19 43 -16 43 5 0 12 -45 27 -54
18z"/>
<path d="M2922 649 c2 -7 10 -15 17 -17 8 -3 12 1 9 9 -2 7 -10 15 -17 17 -8
3 -12 -1 -9 -9z"/>
<path d="M3040 648 c0 -9 4 -19 9 -22 5 -3 7 -15 4 -27 -5 -16 -2 -20 12 -18
28 6 28 24 1 55 -19 22 -25 25 -26 12z"/>
<path d="M3204 651 c-8 -8 -4 -22 5 -17 5 3 11 -1 15 -9 6 -17 15 -19 34 -7
20 14 3 40 -24 38 -14 0 -28 -3 -30 -5z"/>
<path d="M490 640 c0 -5 5 -10 11 -10 5 0 7 5 4 10 -3 6 -8 10 -11 10 -2 0 -4
-4 -4 -10z"/>
<path d="M2062 630 c-24 -22 -27 -30 -13 -30 5 0 16 11 25 25 20 30 17 32 -12
5z"/>
<path d="M2765 640 c-7 -12 2 -30 16 -30 12 0 12 27 0 35 -5 3 -12 1 -16 -5z"/>
<path d="M2997 643 c-8 -7 11 -33 24 -33 5 0 9 9 9 20 0 19 -20 27 -33 13z"/>
<path d="M3481 636 c-8 -10 -9 -16 -1 -21 13 -8 30 3 30 21 0 18 -14 18 -29 0z"/>
<path d="M350 619 c0 -18 2 -19 15 -9 15 12 12 30 -6 30 -5 0 -9 -10 -9 -21z"/>
<path d="M1932 599 c2 -33 -1 -44 -12 -45 -8 -1 -21 -2 -27 -3 -19 -2 -16 -31
5 -39 10 -4 17 -18 17 -32 0 -18 6 -26 23 -28 13 -2 23 2 24 10 2 25 4 33 12
56 5 14 2 33 -7 52 -9 17 -11 30 -5 32 5 2 0 12 -12 23 l-21 19 3 -45z"/>
<path d="M2210 630 c0 -5 5 -10 10 -10 6 0 10 5 10 10 0 6 -4 10 -10 10 -5 0
-10 -4 -10 -10z"/>
<path d="M2500 625 c0 -8 5 -15 10 -15 6 0 10 7 10 15 0 8 -4 15 -10 15 -5 0
-10 -7 -10 -15z"/>
<path d="M2862 624 c4 -21 22 -23 26 -1 2 10 -3 17 -13 17 -10 0 -15 -6 -13
-16z"/>
<path d="M3600 625 c-7 -8 -20 -14 -29 -13 -10 2 -17 -5 -19 -21 -2 -13 0 -21
5 -19 4 3 22 11 40 18 17 8 34 22 36 32 6 22 -16 24 -33 3z"/>
<path d="M440 622 c0 -5 7 -16 16 -23 14 -12 16 -11 13 5 -4 20 -29 35 -29 18z"/>
<path d="M1250 616 c0 -9 7 -16 16 -16 9 0 14 5 12 12 -6 18 -28 21 -28 4z"/>
<path d="M1551 616 c-8 -10 -9 -16 -1 -21 5 -3 13 1 16 10 9 22 -1 29 -15 11z"/>
<path d="M2260 616 c0 -10 9 -16 21 -16 24 0 21 23 -4 28 -10 2 -17 -3 -17
-12z"/>
<path d="M2623 623 c-14 -5 -18 -33 -5 -33 4 0 14 5 22 10 17 11 2 30 -17 23z"/>
<path d="M2707 623 c-12 -11 -8 -23 8 -23 8 0 15 7 15 15 0 16 -12 20 -23 8z"/>
<path d="M3710 614 c0 -8 5 -12 10 -9 6 4 8 11 5 16 -9 14 -15 11 -15 -7z"/>
<path d="M280 605 c0 -8 5 -15 10 -15 6 0 10 7 10 15 0 8 -4 15 -10 15 -5 0
-10 -7 -10 -15z"/>
<path d="M1085 610 c-4 -6 -3 -16 3 -22 6 -6 12 -6 17 2 4 6 3 16 -3 22 -6 6
-12 6 -17 -2z"/>
<path d="M1340 605 c0 -8 7 -15 15 -15 8 0 15 7 15 15 0 8 -7 15 -15 15 -8 0
-15 -7 -15 -15z"/>
<path d="M1787 614 c-8 -8 1 -24 14 -24 5 0 9 7 9 15 0 15 -12 20 -23 9z"/>
<path d="M3430 611 c0 -5 -10 -11 -22 -14 -18 -5 -19 -8 -9 -21 15 -18 31 -12
31 10 0 8 5 14 10 14 6 0 10 5 10 10 0 6 -4 10 -10 10 -5 0 -10 -4 -10 -9z"/>
<path d="M3665 610 c-3 -5 -1 -10 4 -10 6 0 11 5 11 10 0 6 -2 10 -4 10 -3 0
-8 -4 -11 -10z"/>
<path d="M1190 600 c-10 -6 -11 -13 -5 -19 6 -6 16 -7 25 -1 10 6 11 13 5 19
-6 6 -16 7 -25 1z"/>
<path d="M1461 596 c-12 -14 -5 -26 16 -26 15 0 18 26 4 34 -5 3 -14 0 -20 -8z"/>
<path d="M1652 598 c6 -18 28 -21 28 -4 0 9 -7 16 -16 16 -9 0 -14 -5 -12 -12z"/>
<path d="M2192 593 c2 -10 10 -18 18 -18 8 0 16 8 18 18 2 12 -3 17 -18 17
-15 0 -20 -5 -18 -17z"/>
<path d="M394 589 c-10 -17 13 -36 27 -22 12 12 4 33 -11 33 -5 0 -12 -5 -16
-11z"/>
<path d="M830 586 c0 -9 7 -16 16 -16 17 0 14 22 -4 28 -7 2 -12 -3 -12 -12z"/>
<path d="M1406 589 c3 -6 1 -15 -6 -19 -15 -9 -4 -30 16 -30 16 0 17 5 8 38
-4 12 -11 22 -16 22 -5 0 -6 -5 -2 -11z"/>
<path d="M1732 591 c2 -7 7 -12 11 -12 12 1 9 15 -3 20 -7 2 -11 -2 -8 -8z"/>
<path d="M2110 579 c0 -24 38 -35 57 -16 21 21 9 36 -27 35 -22 -1 -30 -6 -30
-19z"/>
<path d="M2563 593 c-18 -6 -16 -33 1 -33 8 0 17 4 20 8 7 12 -7 30 -21 25z"/>
<path d="M780 580 c0 -5 5 -10 10 -10 6 0 10 5 10 10 0 6 -4 10 -10 10 -5 0
-10 -4 -10 -10z"/>
<path d="M870 579 c0 -5 5 -7 10 -4 6 3 10 8 10 11 0 2 -4 4 -10 4 -5 0 -10
-5 -10 -11z"/>
<path d="M1036 575 c-3 -8 -1 -15 4 -15 6 0 10 7 10 15 0 8 -2 15 -4 15 -2 0
-6 -7 -10 -15z"/>
<path d="M1590 570 c0 -13 5 -20 13 -17 6 2 12 10 12 17 0 7 -6 15 -12 18 -8
2 -13 -5 -13 -18z"/>
<path d="M2916 582 c-3 -6 1 -15 8 -21 8 -7 17 -8 20 -3 3 6 -1 15 -8 21 -8 7
-17 8 -20 3z"/>
<path d="M2972 578 c3 -7 13 -15 22 -16 12 -3 17 1 14 10 -3 7 -13 15 -22 16
-12 3 -17 -1 -14 -10z"/>
<path d="M3177 583 c-4 -3 -7 -12 -7 -20 0 -17 26 -17 33 1 8 21 -11 35 -26
19z"/>
<path d="M246 571 c-4 -7 -5 -15 -2 -18 9 -9 19 4 14 18 -4 11 -6 11 -12 0z"/>
<path d="M346 572 c-2 -4 0 -14 5 -22 8 -13 10 -13 19 0 5 8 10 18 10 23 0 10
-28 9 -34 -1z"/>
<path d="M520 565 c0 -8 9 -15 20 -15 13 0 18 5 14 15 -4 8 -12 15 -20 15 -8
0 -14 -7 -14 -15z"/>
<path d="M2340 570 c-11 -7 -11 -11 -1 -24 18 -22 31 -20 31 3 0 24 -12 32
-30 21z"/>
<path d="M2380 570 c0 -5 5 -10 10 -10 6 0 10 5 10 10 0 6 -4 10 -10 10 -5 0
-10 -4 -10 -10z"/>
<path d="M2410 565 c0 -8 7 -15 15 -15 8 0 15 7 15 15 0 8 -7 15 -15 15 -8 0
-15 -7 -15 -15z"/>
<path d="M2500 565 c0 -9 5 -15 11 -13 6 2 11 8 11 13 0 5 -5 11 -11 13 -6 2
-11 -4 -11 -13z"/>
<path d="M3021 564 c0 -11 3 -14 6 -6 3 7 2 16 -1 19 -3 4 -6 -2 -5 -13z"/>
<path d="M3325 570 c-8 -14 3 -30 21 -30 8 0 14 9 14 20 0 21 -24 28 -35 10z"/>
<path d="M3488 573 c-10 -2 -18 -12 -18 -20 0 -9 3 -14 6 -10 4 3 14 -3 24
-15 21 -26 40 -16 36 20 -3 27 -16 34 -48 25z"/>
<path d="M480 560 c0 -5 5 -10 11 -10 5 0 7 5 4 10 -3 6 -8 10 -11 10 -2 0 -4
-4 -4 -10z"/>
<path d="M1317 563 c-12 -11 -8 -23 8 -23 8 0 15 7 15 15 0 16 -12 20 -23 8z"/>
<path d="M2860 554 c0 -9 7 -14 17 -12 25 5 28 28 4 28 -12 0 -21 -6 -21 -16z"/>
<path d="M3635 560 c-8 -13 -1 -24 14 -19 6 3 7 10 2 18 -6 10 -10 10 -16 1z"/>
<path d="M3680 555 c0 -8 5 -15 10 -15 6 0 10 7 10 15 0 8 -4 15 -10 15 -5 0
-10 -7 -10 -15z"/>
<path d="M1547 553 c-12 -11 -8 -23 8 -23 8 0 15 7 15 15 0 16 -12 20 -23 8z"/>
<path d="M2690 551 c0 -6 5 -13 10 -16 6 -3 10 1 10 9 0 9 -4 16 -10 16 -5 0
-10 -4 -10 -9z"/>
<path d="M2770 545 c0 -9 5 -15 11 -13 6 2 11 8 11 13 0 5 -5 11 -11 13 -6 2
-11 -4 -11 -13z"/>
<path d="M3047 554 c-14 -14 -7 -35 11 -32 9 2 17 10 17 17 0 16 -18 25 -28
15z"/>
<path d="M3370 550 c0 -5 5 -10 10 -10 6 0 10 5 10 10 0 6 -4 10 -10 10 -5 0
-10 -4 -10 -10z"/>
<path d="M444 539 c-10 -17 13 -36 27 -22 12 12 4 33 -11 33 -5 0 -12 -5 -16
-11z"/>
<path d="M1240 536 c0 -9 7 -16 16 -16 9 0 14 5 12 12 -6 18 -28 21 -28 4z"/>
<path d="M1855 540 c3 -5 8 -10 11 -10 2 0 4 5 4 10 0 6 -5 10 -11 10 -5 0 -7
-4 -4 -10z"/>
<path d="M2163 534 c-8 -20 8 -36 26 -25 15 10 8 41 -9 41 -6 0 -13 -7 -17
-16z"/>
<path d="M2250 531 c0 -12 6 -21 16 -21 9 0 14 7 12 17 -5 25 -28 28 -28 4z"/>
<path d="M2602 536 c1 -10 8 -17 13 -17 15 1 12 24 -3 29 -9 3 -13 -2 -10 -12z"/>
<path d="M3414 535 c-9 -24 34 -59 53 -43 12 10 13 13 1 18 -7 3 -13 12 -13
20 0 21 -34 25 -41 5z"/>
<path d="M280 525 c0 -8 5 -15 10 -15 6 0 10 7 10 15 0 8 -4 15 -10 15 -5 0
-10 -7 -10 -15z"/>
<path d="M372 528 c-14 -14 -4 -38 14 -31 15 6 19 29 6 37 -5 3 -14 0 -20 -6z"/>
<path d="M762 524 c1 -9 9 -19 16 -22 9 -3 13 2 10 14 -1 9 -9 19 -16 22 -9 3
-13 -2 -10 -14z"/>
<path d="M1080 519 c0 -12 5 -19 12 -17 18 6 20 25 3 31 -10 5 -15 0 -15 -14z"/>
<path d="M1180 524 c0 -17 22 -14 28 4 2 7 -3 12 -12 12 -9 0 -16 -7 -16 -16z"/>
<path d="M1722 531 c2 -7 7 -12 11 -12 12 1 9 15 -3 20 -7 2 -11 -2 -8 -8z"/>
<path d="M1792 523 c2 -10 10 -18 18 -18 22 0 18 29 -3 33 -14 3 -18 -1 -15
-15z"/>
<path d="M3585 530 c-3 -5 -1 -10 4 -10 6 0 11 5 11 10 0 6 -2 10 -4 10 -3 0
-8 -4 -11 -10z"/>
<path d="M525 520 c3 -5 8 -10 11 -10 2 0 4 5 4 10 0 6 -5 10 -11 10 -5 0 -7
-4 -4 -10z"/>
<path d="M580 515 c0 -8 7 -15 15 -15 8 0 15 7 15 15 0 8 -7 15 -15 15 -8 0
-15 -7 -15 -15z"/>
<path d="M837 523 c-7 -11 10 -40 18 -31 4 4 3 14 -3 24 -5 9 -12 12 -15 7z"/>
<path d="M1454 519 c-3 -6 -1 -16 5 -22 9 -9 14 -8 21 3 5 8 10 18 10 23 0 11
-28 8 -36 -4z"/>
<path d="M1646 522 c-3 -6 -1 -14 5 -17 15 -10 25 3 12 16 -7 7 -13 7 -17 1z"/>
<path d="M2383 515 c-3 -9 -3 -18 0 -21 9 -9 27 6 27 22 0 19 -19 18 -27 -1z"/>
<path d="M2517 524 c-9 -10 2 -24 19 -24 8 0 14 7 14 15 0 15 -21 21 -33 9z"/>
<path d="M2884 519 c-8 -14 11 -33 25 -25 6 4 11 14 11 22 0 16 -26 19 -36 3z"/>
<path d="M3000 520 c0 -5 5 -10 10 -10 6 0 10 5 10 10 0 6 -4 10 -10 10 -5 0
-10 -4 -10 -10z"/>
<path d="M1420 509 c0 -5 5 -7 10 -4 6 3 10 8 10 11 0 2 -4 4 -10 4 -5 0 -10
-5 -10 -11z"/>
<path d="M1563 505 c-3 -9 -3 -18 0 -21 9 -9 27 6 27 22 0 19 -19 18 -27 -1z"/>
<path d="M1851 496 c-10 -24 -9 -32 3 -44 8 -8 19 -11 25 -8 13 9 15 36 2 36
-5 0 -11 10 -14 23 -3 21 -4 20 -16 -7z"/>
<path d="M2324 495 c-9 -19 -9 -27 2 -36 7 -6 18 -8 24 -4 5 3 10 2 10 -2 0
-5 6 -17 13 -27 12 -16 14 -16 26 -2 11 13 10 17 -12 25 -16 6 -27 20 -32 40
-8 37 -16 39 -31 6z"/>
<path d="M2972 506 c1 -10 8 -17 13 -17 15 1 12 24 -3 29 -9 3 -13 -2 -10 -12z"/>
<path d="M230 500 c0 -5 5 -10 10 -10 6 0 10 5 10 10 0 6 -4 10 -10 10 -5 0
-10 -4 -10 -10z"/>
<path d="M1374 499 c-7 -12 15 -31 28 -23 4 3 8 12 8 20 0 17 -26 19 -36 3z"/>
<path d="M1503 485 c-7 -16 -8 -27 -1 -31 17 -11 32 13 22 36 -9 19 -9 19 -21
-5z"/>
<path d="M2033 503 c-20 -7 -15 -33 5 -33 10 0 23 -5 29 -11 7 -7 12 -6 16 5
7 16 -31 45 -50 39z"/>
<path d="M2460 501 c0 -6 5 -13 10 -16 6 -3 10 1 10 9 0 9 -4 16 -10 16 -5 0
-10 -4 -10 -9z"/>
<path d="M2737 504 c-8 -8 1 -24 14 -24 5 0 9 7 9 15 0 15 -12 20 -23 9z"/>
<path d="M2825 500 c-7 -12 2 -30 16 -30 12 0 12 27 0 35 -5 3 -12 1 -16 -5z"/>
<path d="M3045 500 c-3 -5 -1 -10 4 -10 6 0 11 5 11 10 0 6 -2 10 -4 10 -3 0
-8 -4 -11 -10z"/>
<path d="M3355 500 c-3 -5 -12 -7 -20 -3 -25 9 -16 -11 9 -23 26 -12 46 -2 46
23 0 15 -26 18 -35 3z"/>
<path d="M3695 500 c3 -5 10 -10 16 -10 5 0 9 5 9 10 0 6 -7 10 -16 10 -8 0
-12 -4 -9 -10z"/>
<path d="M317 493 c-12 -11 -8 -23 8 -23 8 0 15 7 15 15 0 16 -12 20 -23 8z"/>
<path d="M510 485 c0 -10 7 -15 18 -13 21 4 19 22 -2 26 -10 2 -16 -3 -16 -13z"/>
<path d="M455 480 c-3 -5 -4 -14 0 -20 8 -13 35 -1 35 16 0 16 -26 19 -35 4z"/>
<path d="M877 469 c-7 -27 1 -49 19 -49 15 0 17 12 8 48 -8 28 -20 28 -27 1z"/>
<path d="M1027 483 c-4 -3 -7 -15 -7 -25 0 -13 7 -18 25 -18 19 0 25 5 25 21
0 12 -4 18 -11 13 -6 -3 -14 -1 -18 5 -4 6 -10 8 -14 4z"/>
<path d="M1200 475 c0 -8 7 -15 15 -15 8 0 15 7 15 15 0 8 -7 15 -15 15 -8 0
-15 -7 -15 -15z"/>
<path d="M1285 480 c-8 -14 3 -30 21 -30 8 0 14 9 14 20 0 21 -24 28 -35 10z"/>
<path d="M1775 480 c-7 -12 2 -30 16 -30 12 0 12 27 0 35 -5 3 -12 1 -16 -5z"/>
<path d="M2267 483 c-13 -12 -7 -33 8 -33 8 0 15 9 15 20 0 20 -11 26 -23 13z"/>
<path d="M2675 480 c-4 -6 -3 -16 3 -22 6 -6 12 -6 17 2 4 6 3 16 -3 22 -6 6
-12 6 -17 -2z"/>
<path d="M3555 480 c-7 -12 2 -30 16 -30 12 0 12 27 0 35 -5 3 -12 1 -16 -5z"/>
<path d="M3642 481 c4 -13 18 -16 19 -4 0 4 -5 9 -11 12 -7 2 -11 -2 -8 -8z"/>
<path d="M3760 480 c0 -5 5 -10 11 -10 5 0 7 5 4 10 -3 6 -8 10 -11 10 -2 0
-4 -4 -4 -10z"/>
<path d="M255 469 c-4 -6 -5 -13 -2 -16 7 -7 27 6 27 18 0 12 -17 12 -25 -2z"/>
<path d="M677 466 c-3 -7 5 -23 18 -34 15 -13 22 -28 18 -40 -2 -11 0 -23 6
-26 6 -4 8 -20 4 -36 -4 -22 -1 -31 10 -36 9 -3 13 -12 10 -20 -3 -8 3 -24 13
-35 16 -17 16 -23 5 -41 -11 -18 -11 -23 3 -33 9 -7 14 -19 11 -27 -3 -8 3
-23 15 -33 11 -10 20 -24 20 -32 0 -11 4 -11 20 -1 25 16 26 36 3 45 -36 13
-42 38 -12 46 27 7 19 33 -10 30 -17 -2 -21 3 -21 25 0 15 -5 33 -11 39 -9 9
-8 16 5 28 21 22 21 24 -10 35 -20 8 -25 15 -21 31 3 12 1 31 -5 43 -24 46
-28 56 -28 71 0 19 -36 20 -43 1z"/>
<path d="M938 474 c-14 -13 6 -44 28 -44 13 0 27 -1 32 -2 4 -1 8 6 10 15 2
10 -3 17 -12 17 -9 0 -16 5 -16 10 0 11 -33 14 -42 4z"/>
<path d="M1126 471 c-7 -11 18 -33 27 -24 4 3 7 12 7 20 0 15 -26 18 -34 4z"/>
<path d="M2620 465 c0 -8 5 -15 10 -15 6 0 10 7 10 15 0 8 -4 15 -10 15 -5 0
-10 -7 -10 -15z"/>
<path d="M3037 474 c-13 -13 -7 -24 14 -24 11 0 19 5 17 12 -5 14 -22 21 -31
12z"/>
<path d="M3262 448 c-7 -21 -8 -36 -2 -42 6 -6 12 -3 16 7 3 9 12 17 20 17 8
0 14 10 14 25 0 38 -33 33 -48 -7z"/>
<path d="M810 460 c0 -5 5 -10 10 -10 6 0 10 5 10 10 0 6 -4 10 -10 10 -5 0
-10 -4 -10 -10z"/>
<path d="M1427 463 c-13 -13 -7 -32 8 -27 8 4 15 12 15 20 0 15 -12 19 -23 7z"/>
<path d="M2170 450 c0 -15 5 -20 18 -18 9 2 17 10 17 18 0 8 -8 16 -17 18 -13
2 -18 -3 -18 -18z"/>
<path d="M2530 455 c-7 -9 -10 -18 -7 -21 10 -11 37 5 37 21 0 19 -14 19 -30
0z"/>
<path d="M380 440 c0 -13 5 -18 15 -14 8 4 15 12 15 20 0 8 -7 14 -15 14 -8 0
-15 -9 -15 -20z"/>
<path d="M745 450 c-4 -6 -3 -16 3 -22 6 -6 12 -6 17 2 4 6 3 16 -3 22 -6 6
-12 6 -17 -2z"/>
<path d="M1085 450 c-3 -5 -1 -10 4 -10 6 0 11 5 11 10 0 6 -2 10 -4 10 -3 0
-8 -4 -11 -10z"/>
<path d="M1371 448 c-1 -10 -5 -18 -11 -18 -5 0 -10 -7 -10 -15 0 -16 25 -21
34 -6 4 5 2 20 -3 33 -7 17 -10 18 -10 6z"/>
<path d="M1660 445 c0 -8 5 -15 10 -15 6 0 10 7 10 15 0 8 -4 15 -10 15 -5 0
-10 -7 -10 -15z"/>
<path d="M1712 449 c2 -6 8 -10 13 -10 5 0 11 4 13 10 2 6 -4 11 -13 11 -9 0
-15 -5 -13 -11z"/>
<path d="M1810 450 c0 -5 5 -10 10 -10 6 0 10 5 10 10 0 6 -4 10 -10 10 -5 0
-10 -4 -10 -10z"/>
<path d="M2103 441 c-3 -12 -9 -21 -14 -21 -5 0 -9 -4 -9 -8 0 -4 16 -8 35 -8
19 0 30 3 24 7 -6 3 -9 14 -7 24 4 26 -22 31 -29 6z"/>
<path d="M2230 450 c0 -5 5 -10 10 -10 6 0 10 5 10 10 0 6 -4 10 -10 10 -5 0
-10 -4 -10 -10z"/>
<path d="M2980 445 c0 -8 6 -15 14 -15 8 0 16 7 20 15 4 10 -1 15 -14 15 -11
0 -20 -7 -20 -15z"/>
<path d="M3455 450 c-3 -5 1 -10 9 -10 9 0 16 5 16 10 0 6 -4 10 -9 10 -6 0
-13 -4 -16 -10z"/>
<path d="M587 444 c-9 -10 2 -24 19 -24 8 0 14 7 14 15 0 15 -21 21 -33 9z"/>
<path d="M1576 443 c-12 -12 -6 -33 9 -33 8 0 15 6 15 14 0 17 -14 28 -24 19z"/>
<path d="M1906 434 c-3 -9 -12 -14 -19 -11 -19 7 -57 -27 -47 -43 4 -7 13 -9
19 -5 18 11 44 -15 30 -31 -6 -7 -8 -22 -4 -34 5 -14 2 -20 -9 -20 -9 0 -16
-9 -16 -20 0 -11 -4 -20 -10 -20 -5 0 -10 11 -10 25 0 14 -4 25 -10 25 -5 0
-10 -9 -10 -19 0 -11 -6 -22 -12 -24 -9 -4 -5 -12 11 -25 18 -15 21 -23 13
-38 -5 -10 -13 -41 -17 -69 -4 -31 -14 -54 -26 -63 -14 -10 -17 -18 -9 -31 5
-10 6 -21 3 -25 -3 -3 6 -6 20 -6 26 0 38 22 18 34 -12 8 -1 56 13 56 8 0 13
16 13 43 0 47 29 136 50 153 7 6 11 18 8 26 -6 16 4 45 35 96 11 18 16 30 10
27 -6 -4 -17 -2 -24 4 -10 9 -15 8 -20 -5z m10 -51 c-10 -10 -19 5 -10 18 6
11 8 11 12 0 2 -7 1 -15 -2 -18z"/>
<path d="M2460 436 c0 -9 7 -16 16 -16 9 0 14 5 12 12 -6 18 -28 21 -28 4z"/>
<path d="M2826 435 c-3 -9 1 -18 10 -22 19 -7 28 2 21 22 -8 19 -23 19 -31 0z"/>
<path d="M2900 435 c0 -8 7 -15 15 -15 8 0 15 7 15 15 0 8 -7 15 -15 15 -8 0
-15 -7 -15 -15z"/>
<path d="M3150 440 c0 -5 5 -10 10 -10 6 0 10 5 10 10 0 6 -4 10 -10 10 -5 0
-10 -4 -10 -10z"/>
<path d="M3318 418 l-27 -28 30 0 c16 0 29 5 29 11 0 5 -4 7 -10 4 -14 -9 -13
8 2 23 6 6 10 13 7 15 -2 1 -16 -10 -31 -25z"/>
<path d="M3367 444 c-14 -14 -7 -35 11 -32 9 2 17 10 17 17 0 16 -18 25 -28
15z"/>
<path d="M175 430 c-3 -5 -1 -10 4 -10 6 0 11 5 11 10 0 6 -2 10 -4 10 -3 0
-8 -4 -11 -10z"/>
<path d="M320 424 c0 -9 5 -14 12 -12 18 6 21 28 4 28 -9 0 -16 -7 -16 -16z"/>
<path d="M3665 430 c3 -5 10 -10 16 -10 5 0 9 5 9 10 0 6 -7 10 -16 10 -8 0
-12 -4 -9 -10z"/>
<path d="M3720 426 c0 -9 5 -16 10 -16 6 0 10 4 10 9 0 6 -4 13 -10 16 -5 3
-10 -1 -10 -9z"/>
<path d="M3780 430 c0 -5 5 -10 10 -10 6 0 10 5 10 10 0 6 -4 10 -10 10 -5 0
-10 -4 -10 -10z"/>
<path d="M482 413 c5 -25 28 -28 28 -4 0 12 -6 21 -16 21 -9 0 -14 -7 -12 -17z"/>
<path d="M1301 416 c-9 -10 -9 -16 -1 -21 17 -10 37 12 24 25 -8 8 -15 6 -23
-4z"/>
<path d="M1497 415 c-8 -18 11 -31 25 -17 11 11 3 32 -12 32 -4 0 -10 -7 -13
-15z"/>
<path d="M2031 416 c-8 -10 -8 -16 2 -25 8 -6 12 -22 9 -36 -5 -31 17 -34 42
-6 16 17 16 19 -4 24 -12 3 -20 13 -20 25 0 27 -15 36 -29 18z"/>
<path d="M2740 416 c0 -9 7 -16 16 -16 9 0 14 5 12 12 -6 18 -28 21 -28 4z"/>
<path d="M3582 418 c5 -15 28 -18 29 -3 0 6 -7 12 -17 13 -10 3 -15 -1 -12
-10z"/>
<path d="M406 413 c-12 -12 -6 -33 9 -33 8 0 15 6 15 14 0 17 -14 28 -24 19z"/>
<path d="M924 407 c-3 -8 -13 -13 -23 -10 -23 6 -36 -23 -14 -31 8 -4 22 -1
30 5 11 9 17 8 28 -7 8 -10 15 -27 15 -36 0 -9 4 -20 10 -23 16 -10 -11 -43
-32 -37 -24 6 -23 -14 1 -29 11 -8 16 -19 13 -31 -2 -10 1 -24 7 -32 8 -9 8
-22 2 -39 -5 -14 -7 -28 -3 -32 4 -4 7 -28 7 -53 0 -46 1 -47 33 -50 19 -2 32
1 32 8 0 7 6 10 12 8 7 -3 18 1 25 8 18 17 16 23 -5 19 -16 -3 -18 4 -18 53 1
40 5 56 14 55 17 -4 15 12 -3 27 -8 7 -15 19 -15 27 0 13 -4 13 -25 -1 -31
-20 -56 -10 -27 10 16 11 19 22 15 54 -4 31 -2 41 11 46 22 8 21 32 -1 30 -13
-1 -19 7 -21 27 -2 15 -8 28 -13 28 -19 3 -24 5 -37 12 -7 5 -14 3 -18 -6z"/>
<path d="M1030 410 c0 -5 -7 -10 -16 -10 -9 0 -14 -6 -11 -12 2 -7 11 -13 20
-13 8 0 19 -4 23 -8 13 -12 24 -8 24 11 0 9 -9 23 -20 30 -12 7 -20 8 -20 2z"/>
<path d="M2283 404 c-8 -21 13 -42 28 -27 13 13 5 43 -11 43 -6 0 -13 -7 -17
-16z"/>
<path d="M2555 410 c-7 -12 2 -30 16 -30 12 0 12 27 0 35 -5 3 -12 1 -16 -5z"/>
<path d="M3526 411 c-8 -12 4 -41 16 -41 5 0 7 4 4 9 -4 5 -1 11 6 13 6 2 8
10 4 16 -9 14 -23 16 -30 3z"/>
<path d="M256 401 c-4 -7 -5 -15 -2 -18 9 -9 19 4 14 18 -4 11 -6 11 -12 0z"/>
<path d="M1127 404 c-9 -10 2 -24 19 -24 8 0 14 7 14 15 0 15 -21 21 -33 9z"/>
<path d="M1205 399 c-4 -6 -4 -13 -1 -16 8 -8 36 5 36 17 0 13 -27 13 -35 -1z"/>
<path d="M1785 400 c-10 -16 7 -31 23 -21 10 6 10 10 -2 20 -10 9 -16 9 -21 1z"/>
<path d="M2190 403 c0 -5 5 -15 10 -23 7 -11 12 -12 21 -3 6 6 8 16 5 22 -8
12 -36 15 -36 4z"/>
<path d="M2486 388 c-6 -26 9 -47 24 -32 10 10 2 54 -10 54 -4 0 -10 -10 -14
-22z"/>
<path d="M2635 401 c-7 -12 12 -24 25 -16 11 7 4 25 -10 25 -5 0 -11 -4 -15
-9z"/>
<path d="M3006 401 c-3 -5 1 -14 8 -20 16 -13 32 2 21 19 -8 12 -22 13 -29 1z"/>
<path d="M346 385 c-10 -26 -7 -35 9 -35 17 0 19 18 6 38 -7 11 -10 10 -15 -3z"/>
<path d="M607 394 c-9 -10 2 -24 19 -24 8 0 14 7 14 15 0 15 -21 21 -33 9z"/>
<path d="M810 386 c0 -9 7 -16 16 -16 17 0 14 22 -4 28 -7 2 -12 -3 -12 -12z"/>
<path d="M1398 393 c6 -3 12 -11 12 -19 0 -16 9 -18 29 -5 20 13 6 29 -26 28
-16 0 -22 -2 -15 -4z"/>
<path d="M1470 390 c0 -5 5 -10 11 -10 5 0 7 5 4 10 -3 6 -8 10 -11 10 -2 0
-4 -4 -4 -10z"/>
<path d="M2922 388 c6 -18 28 -21 28 -4 0 9 -7 16 -16 16 -9 0 -14 -5 -12 -12z"/>
<path d="M1592 376 c1 -10 8 -17 13 -17 15 1 12 24 -3 29 -9 3 -13 -2 -10 -12z"/>
<path d="M1682 376 c1 -10 8 -17 13 -17 15 1 12 24 -3 29 -9 3 -13 -2 -10 -12z"/>
<path d="M2337 368 c-10 -34 -9 -38 8 -38 16 0 20 27 6 48 -6 10 -10 8 -14
-10z"/>
<path d="M2392 378 c6 -18 28 -21 28 -4 0 9 -7 16 -16 16 -9 0 -14 -5 -12 -12z"/>
<path d="M3456 382 c-2 -4 -1 -14 4 -22 7 -11 11 -11 24 -1 9 7 13 17 10 22
-7 11 -31 12 -38 1z"/>
<path d="M544 369 c-10 -17 13 -36 27 -22 12 12 4 33 -11 33 -5 0 -12 -5 -16
-11z"/>
<path d="M2125 370 c-8 -12 20 -24 35 -15 6 3 8 11 5 16 -8 12 -32 12 -40 -1z"/>
<path d="M2762 366 c1 -10 8 -17 13 -17 15 1 12 24 -3 29 -9 3 -13 -2 -10 -12z"/>
<path d="M2856 371 c-3 -5 0 -14 8 -20 10 -8 16 -8 25 2 6 8 8 17 4 20 -9 10
-31 9 -37 -2z"/>
<path d="M3375 370 c-4 -6 -3 -16 3 -22 6 -6 12 -6 17 2 4 6 3 16 -3 22 -6 6
-12 6 -17 -2z"/>
<path d="M3600 366 c0 -8 5 -18 10 -21 6 -3 10 3 10 14 0 12 -4 21 -10 21 -5
0 -10 -6 -10 -14z"/>
<path d="M3730 370 c0 -5 7 -10 16 -10 8 0 12 5 9 10 -3 6 -10 10 -16 10 -5 0
-9 -4 -9 -10z"/>
<path d="M461 356 c-12 -14 -5 -26 16 -26 15 0 18 26 4 34 -5 3 -14 0 -20 -8z"/>
<path d="M3670 356 c0 -9 7 -16 16 -16 9 0 14 5 12 12 -6 18 -28 21 -28 4z"/>
<path d="M3840 361 c0 -5 5 -13 10 -16 6 -3 10 -2 10 4 0 5 -4 13 -10 16 -5 3
-10 2 -10 -4z"/>
<path d="M270 345 c0 -8 5 -15 10 -15 6 0 10 7 10 15 0 8 -4 15 -10 15 -5 0
-10 -7 -10 -15z"/>
<path d="M411 348 c-1 -9 -7 -18 -13 -21 -10 -3 -10 -8 -2 -16 16 -17 34 8 23
34 -6 16 -8 16 -8 3z"/>
<path d="M916 353 c-11 -11 -6 -50 8 -62 19 -16 30 3 17 27 -6 11 -8 22 -5 25
3 3 1 8 -4 11 -5 3 -12 3 -16 -1z"/>
<path d="M1222 346 c1 -10 8 -17 13 -17 15 1 12 24 -3 29 -9 3 -13 -2 -10 -12z"/>
<path d="M1310 345 c0 -10 7 -15 18 -13 21 4 19 22 -2 26 -10 2 -16 -3 -16
-13z"/>
<path d="M1520 344 c0 -9 7 -14 17 -12 25 5 28 28 4 28 -12 0 -21 -6 -21 -16z"/>
<path d="M1803 347 c-7 -12 14 -32 35 -32 16 0 32 13 32 26 0 11 -60 16 -67 6z"/>
<path d="M2260 345 c-16 -20 -5 -34 25 -31 29 3 46 16 22 16 -9 0 -17 7 -17
15 0 19 -14 19 -30 0z"/>
<path d="M2695 351 c-7 -12 12 -24 25 -16 11 7 4 25 -10 25 -5 0 -11 -4 -15
-9z"/>
<path d="M3303 352 c-13 -2 -23 -8 -23 -13 0 -6 5 -7 10 -4 6 3 10 1 10 -4 0
-14 27 -14 36 0 9 15 -7 26 -33 21z"/>
<path d="M205 340 c-3 -5 -2 -10 4 -10 5 0 13 5 16 10 3 6 2 10 -4 10 -5 0
-13 -4 -16 -10z"/>
<path d="M500 340 c0 -5 5 -10 11 -10 5 0 7 5 4 10 -3 6 -8 10 -11 10 -2 0 -4
-4 -4 -10z"/>
<path d="M824 339 c-10 -17 13 -36 27 -22 12 12 4 33 -11 33 -5 0 -12 -5 -16
-11z"/>
<path d="M1427 343 c-13 -12 -7 -23 13 -23 11 0 20 7 20 15 0 15 -21 21 -33 8z"/>
<path d="M2610 340 c0 -5 7 -10 15 -10 8 0 15 5 15 10 0 6 -7 10 -15 10 -8 0
-15 -4 -15 -10z"/>
<path d="M2987 343 c-12 -11 -8 -23 8 -23 8 0 15 7 15 15 0 16 -12 20 -23 8z"/>
<path d="M3510 334 c0 -9 7 -14 17 -12 25 5 28 28 4 28 -12 0 -21 -6 -21 -16z"/>
<path d="M1057 334 c-8 -8 1 -24 14 -24 5 0 9 7 9 15 0 15 -12 20 -23 9z"/>
<path d="M1154 329 c-3 -6 -2 -15 2 -19 12 -12 38 5 30 19 -9 14 -23 14 -32 0z"/>
<path d="M2000 330 c0 -5 5 -10 11 -10 5 0 7 5 4 10 -3 6 -8 10 -11 10 -2 0
-4 -4 -4 -10z"/>
<path d="M1655 320 c-8 -13 4 -32 16 -25 12 8 12 35 0 35 -6 0 -13 -4 -16 -10z"/>
<path d="M1740 315 c0 -8 7 -15 15 -15 8 0 15 7 15 15 0 8 -7 15 -15 15 -8 0
-15 -7 -15 -15z"/>
<path d="M2193 314 c-8 -20 8 -36 26 -25 15 10 8 41 -9 41 -6 0 -13 -7 -17
-16z"/>
<path d="M2542 318 c5 -15 28 -18 29 -3 0 6 -7 12 -17 13 -10 3 -15 -1 -12
-10z"/>
<path d="M2916 321 c-3 -5 1 -14 8 -20 16 -13 32 2 21 19 -8 12 -22 13 -29 1z"/>
<path d="M3427 323 c-2 -5 -1 -19 2 -32 l7 -24 16 25 c9 14 14 28 11 32 -9 8
-31 8 -36 -1z"/>
<path d="M3706 323 c-11 -11 -6 -23 9 -23 8 0 15 4 15 9 0 13 -16 22 -24 14z"/>
<path d="M237 313 c-10 -9 -9 -23 2 -23 5 0 11 7 15 15 5 15 -5 20 -17 8z"/>
<path d="M342 304 c4 -21 22 -23 26 -1 2 10 -3 17 -13 17 -10 0 -15 -6 -13
-16z"/>
<path d="M537 313 c-4 -3 -7 -12 -7 -20 0 -15 26 -18 34 -4 7 11 -18 33 -27
24z"/>
<path d="M617 314 c-9 -10 2 -24 19 -24 8 0 14 7 14 15 0 15 -21 21 -33 9z"/>
<path d="M1365 310 c-11 -17 5 -32 21 -19 7 6 11 15 8 20 -7 12 -21 11 -29 -1z"/>
<path d="M2060 305 c0 -8 -4 -15 -10 -15 -5 0 -10 -9 -10 -21 0 -36 34 -19 36
19 1 17 -2 32 -7 32 -5 0 -9 -7 -9 -15z"/>
<path d="M2500 305 c0 -8 5 -15 10 -15 6 0 10 7 10 15 0 8 -4 15 -10 15 -5 0
-10 -7 -10 -15z"/>
<path d="M2864 305 c-4 -9 -4 -18 -2 -21 9 -8 39 8 35 19 -6 18 -27 20 -33 2z"/>
<path d="M175 300 c-3 -5 -1 -10 4 -10 6 0 11 5 11 10 0 6 -2 10 -4 10 -3 0
-8 -4 -11 -10z"/>
<path d="M2140 295 c0 -8 7 -15 15 -15 8 0 15 7 15 15 0 8 -7 15 -15 15 -8 0
-15 -7 -15 -15z"/>
<path d="M2324 296 c-6 -17 2 -36 17 -36 12 0 12 37 -1 45 -6 3 -13 -1 -16 -9z"/>
<path d="M2400 303 c0 -5 4 -15 10 -23 11 -18 25 -7 17 15 -6 15 -27 21 -27 8z"/>
<path d="M3650 294 c0 -17 22 -14 28 4 2 7 -3 12 -12 12 -9 0 -16 -7 -16 -16z"/>
<path d="M1020 285 c-13 -16 -7 -45 10 -45 5 0 10 14 10 30 0 34 -3 36 -20 15z"/>
<path d="M1277 293 c-13 -12 -7 -23 13 -23 11 0 20 7 20 15 0 15 -21 21 -33 8z"/>
<path d="M1582 288 c6 -18 28 -21 28 -4 0 9 -7 16 -16 16 -9 0 -14 -5 -12 -12z"/>
<path d="M3330 280 c0 -22 7 -25 29 -11 16 10 6 31 -15 31 -8 0 -14 -9 -14
-20z"/>
<path d="M3381 284 c0 -11 3 -14 6 -6 3 7 2 16 -1 19 -3 4 -6 -2 -5 -13z"/>
<path d="M445 280 c-8 -13 4 -32 16 -25 12 8 12 35 0 35 -6 0 -13 -4 -16 -10z"/>
<path d="M1520 277 c0 -21 12 -28 27 -16 19 16 16 29 -7 29 -11 0 -20 -6 -20
-13z"/>
<path d="M2010 280 c0 -5 5 -10 11 -10 5 0 7 5 4 10 -3 6 -8 10 -11 10 -2 0
-4 -4 -4 -10z"/>
<path d="M3275 280 c-4 -6 -3 -14 0 -20 9 -15 35 -12 35 4 0 17 -27 29 -35 16z"/>
<path d="M3500 275 c0 -10 7 -15 18 -13 21 4 19 22 -2 26 -10 2 -16 -3 -16
-13z"/>
<path d="M3590 276 c0 -9 7 -16 16 -16 9 0 14 5 12 12 -6 18 -28 21 -28 4z"/>
<path d="M277 273 c-12 -11 -8 -23 8 -23 8 0 15 7 15 15 0 16 -12 20 -23 8z"/>
<path d="M368 268 c-7 -18 2 -39 13 -32 12 7 12 44 0 44 -5 0 -11 -6 -13 -12z"/>
<path d="M1206 272 c-8 -13 11 -35 23 -28 16 10 14 36 -3 36 -8 0 -17 -4 -20
-8z"/>
<path d="M1966 271 c-3 -5 1 -14 8 -20 16 -13 32 2 21 19 -8 12 -22 13 -29 1z"/>
<path d="M2263 270 c-28 -12 -30 -40 -3 -40 11 0 20 7 20 15 0 8 5 15 10 15 6
0 10 5 10 10 0 12 -7 12 -37 0z"/>
<path d="M205 259 c-4 -6 -5 -13 -2 -16 7 -7 27 6 27 18 0 12 -17 12 -25 -2z"/>
<path d="M317 249 c-10 -35 -9 -39 8 -39 16 0 18 14 6 44 -7 18 -8 18 -14 -5z"/>
<path d="M1150 255 c0 -8 7 -15 15 -15 8 0 15 7 15 15 0 8 -7 15 -15 15 -8 0
-15 -7 -15 -15z"/>
<path d="M1385 260 c-3 -5 -1 -10 4 -10 6 0 11 5 11 10 0 6 -2 10 -4 10 -3 0
-8 -4 -11 -10z"/>
<path d="M1420 256 c0 -8 4 -17 9 -20 11 -7 33 18 24 27 -12 12 -33 7 -33 -7z"/>
<path d="M405 250 c-3 -5 -1 -10 4 -10 6 0 11 5 11 10 0 6 -2 10 -4 10 -3 0
-8 -4 -11 -10z"/>
<path d="M585 250 c-3 -5 -4 -14 0 -20 8 -13 35 -1 35 16 0 16 -26 19 -35 4z"/>
<path d="M673 248 c2 -7 10 -13 17 -13 7 0 15 6 18 13 2 7 -5 12 -18 12 -13 0
-20 -5 -17 -12z"/>
<path d="M832 243 c4 -21 33 -25 33 -3 0 8 -8 16 -18 18 -14 3 -18 -1 -15 -15z"/>
<path d="M1057 247 c-3 -7 -1 -20 3 -28 7 -11 10 -10 16 4 4 10 2 23 -3 28 -7
7 -12 6 -16 -4z"/>
<path d="M1347 253 c-13 -12 -7 -33 8 -33 8 0 15 9 15 20 0 20 -11 26 -23 13z"/>
<path d="M1722 248 c6 -18 28 -21 28 -4 0 9 -7 16 -16 16 -9 0 -14 -5 -12 -12z"/>
<path d="M2167 253 c-17 -16 -5 -33 23 -33 17 0 30 5 30 11 0 5 -4 8 -9 5 -5
-3 -11 1 -15 9 -6 16 -18 19 -29 8z"/>
<path d="M3434 249 c-8 -14 11 -33 25 -25 16 10 13 36 -3 36 -8 0 -18 -5 -22
-11z"/>
<path d="M3716 245 c4 -8 8 -15 10 -15 2 0 4 7 4 15 0 8 -4 15 -10 15 -5 0 -7
-7 -4 -15z"/>
<path d="M2320 248 c-2 -5 -3 -11 -4 -15 -1 -5 -5 -14 -10 -21 -11 -18 10 -40
24 -26 6 6 6 21 1 39 -5 17 -10 27 -11 23z"/>
<path d="M2370 229 c0 -24 23 -21 28 4 2 10 -3 17 -12 17 -10 0 -16 -9 -16
-21z"/>
<path d="M3656 242 c-3 -6 1 -15 8 -21 8 -7 17 -8 20 -3 3 6 -1 15 -8 21 -8 7
-17 8 -20 3z"/>
<path d="M514 229 c-3 -6 -2 -15 2 -19 12 -12 38 5 30 19 -9 14 -23 14 -32 0z"/>
<path d="M630 229 c0 -5 5 -7 10 -4 6 3 10 8 10 11 0 2 -4 4 -10 4 -5 0 -10
-5 -10 -11z"/>
<path d="M895 230 c-3 -5 -1 -10 4 -10 6 0 11 5 11 10 0 6 -2 10 -4 10 -3 0
-8 -4 -11 -10z"/>
<path d="M1551 226 c-12 -14 -5 -26 16 -26 15 0 18 26 4 34 -5 3 -14 0 -20 -8z"/>
<path d="M1634 229 c-8 -14 18 -31 30 -19 9 9 0 30 -14 30 -5 0 -12 -5 -16
-11z"/>
<path d="M2100 230 c-12 -7 -12 -12 -2 -22 9 -9 15 -9 24 0 16 16 -2 34 -22
22z"/>
<path d="M3337 227 c-5 -13 15 -47 28 -47 4 0 5 6 2 14 -3 8 -1 16 5 18 15 5
1 28 -17 28 -7 0 -15 -6 -18 -13z"/>
<path d="M3780 230 c0 -5 5 -10 11 -10 5 0 7 5 4 10 -3 6 -8 10 -11 10 -2 0
-4 -4 -4 -10z"/>
<path d="M235 219 c-4 -6 -5 -13 -2 -16 7 -7 27 6 27 18 0 12 -17 12 -25 -2z"/>
<path d="M454 219 c-10 -17 13 -36 27 -22 12 12 4 33 -11 33 -5 0 -12 -5 -16
-11z"/>
<path d="M2017 223 c-13 -12 -7 -33 8 -33 8 0 15 9 15 20 0 20 -11 26 -23 13z"/>
<path d="M3566 215 c4 -8 12 -15 20 -15 8 0 14 7 14 15 0 8 -9 15 -20 15 -13
0 -18 -5 -14 -15z"/>
<path d="M3860 220 c0 -5 5 -10 10 -10 6 0 10 5 10 10 0 6 -4 10 -10 10 -5 0
-10 -4 -10 -10z"/>
<path d="M1170 210 c-12 -7 -12 -12 -2 -22 9 -9 15 -9 24 0 16 16 -2 34 -22
22z"/>
<path d="M1254 209 c-3 -6 0 -15 7 -20 13 -7 28 5 29 24 0 11 -28 8 -36 -4z"/>
<path d="M1480 210 c-12 -7 -12 -12 -2 -22 9 -9 15 -9 24 0 16 16 -2 34 -22
22z"/>
<path d="M887 204 c-9 -10 4 -34 19 -34 8 0 14 9 14 20 0 19 -19 27 -33 14z"/>
<path d="M1383 195 c-3 -9 -3 -18 0 -22 10 -10 37 6 37 22 0 20 -29 20 -37 0z"/>
<path d="M2050 199 c0 -5 5 -7 10 -4 6 3 10 8 10 11 0 2 -4 4 -10 4 -5 0 -10
-5 -10 -11z"/>
<path d="M2253 194 c-9 -25 13 -40 26 -16 10 19 6 32 -11 32 -5 0 -11 -7 -15
-16z"/>
<path d="M3460 195 c0 -10 7 -15 18 -13 21 4 19 22 -2 26 -10 2 -16 -3 -16
-13z"/>
<path d="M368 177 c6 -22 35 -18 40 6 3 13 -3 16 -21 15 -18 -2 -23 -7 -19
-21z"/>
<path d="M682 183 c5 -25 28 -28 28 -4 0 12 -6 21 -16 21 -9 0 -14 -7 -12 -17z"/>
<path d="M1090 186 c0 -8 4 -17 9 -20 11 -7 33 18 24 27 -12 12 -33 7 -33 -7z"/>
<path d="M1772 188 c6 -18 28 -21 28 -4 0 9 -7 16 -16 16 -9 0 -14 -5 -12 -12z"/>
<path d="M1944 189 c-10 -17 13 -36 27 -22 12 12 4 33 -11 33 -5 0 -12 -5 -16
-11z"/>
<path d="M3280 185 c0 -9 -6 -12 -15 -9 -8 4 -15 1 -15 -6 0 -19 64 -8 68 13
2 12 -3 17 -17 17 -12 0 -21 -6 -21 -15z"/>
<path d="M3398 183 c-16 -8 -28 -21 -28 -29 0 -20 29 -18 37 4 4 9 11 20 17
24 21 14 0 14 -26 1z"/>
<path d="M211 174 c0 -11 3 -14 6 -6 3 7 2 16 -1 19 -3 4 -6 -2 -5 -13z"/>
<path d="M305 179 c-10 -15 1 -23 20 -15 9 3 13 10 10 16 -8 13 -22 13 -30 -1z"/>
<path d="M1896 181 c-4 -7 -5 -15 -2 -18 9 -9 19 4 14 18 -4 11 -6 11 -12 0z"/>
<path d="M2150 178 c0 -4 5 -8 10 -8 6 0 9 -6 8 -12 -2 -7 6 -13 17 -13 11 0
21 7 23 16 2 12 -6 18 -27 21 -17 3 -31 1 -31 -4z"/>
<path d="M3682 181 c4 -13 18 -16 19 -4 0 4 -5 9 -11 12 -7 2 -11 -2 -8 -8z"/>
<path d="M3740 181 c0 -5 5 -13 10 -16 6 -3 10 -2 10 4 0 5 -4 13 -10 16 -5 3
-10 2 -10 -4z"/>
<path d="M585 171 c-3 -5 -1 -12 5 -16 12 -7 30 2 30 16 0 12 -27 12 -35 0z"/>
<path d="M850 170 c0 -5 5 -10 10 -10 6 0 10 5 10 10 0 6 -4 10 -10 10 -5 0
-10 -4 -10 -10z"/>
<path d="M1323 173 c-18 -6 -16 -33 1 -33 19 0 31 19 20 30 -5 4 -15 5 -21 3z"/>
<path d="M1706 171 c-3 -5 1 -14 8 -20 16 -13 32 2 21 19 -8 12 -22 13 -29 1z"/>
<path d="M2226 165 c4 -8 8 -15 10 -15 2 0 4 7 4 15 0 8 -4 15 -10 15 -5 0 -7
-7 -4 -15z"/>
<path d="M3602 164 c1 -9 9 -19 16 -22 9 -3 13 2 10 14 -1 9 -9 19 -16 22 -9
3 -13 -2 -10 -14z"/>
<path d="M3805 170 c3 -5 8 -10 11 -10 2 0 4 5 4 10 0 6 -5 10 -11 10 -5 0 -7
-4 -4 -10z"/>
<path d="M3865 170 c3 -5 8 -10 11 -10 2 0 4 5 4 10 0 6 -5 10 -11 10 -5 0 -7
-4 -4 -10z"/>
<path d="M526 162 c-3 -6 -15 -8 -26 -5 -14 4 -20 0 -20 -10 0 -9 3 -18 8 -20
9 -6 57 31 49 39 -3 3 -8 1 -11 -4z"/>
<path d="M1645 161 c-3 -5 -1 -12 5 -16 12 -7 30 2 30 16 0 12 -27 12 -35 0z"/>
<path d="M2100 150 c0 -13 5 -20 13 -17 16 5 16 29 0 35 -8 2 -13 -5 -13 -18z"/>
<path d="M2364 159 c-8 -14 11 -33 25 -25 6 4 11 14 11 22 0 16 -26 19 -36 3z"/>
<path d="M3543 154 c-7 -19 2 -28 22 -21 19 8 19 23 0 31 -9 3 -18 -1 -22 -10z"/>
<path d="M115 150 c-3 -5 -1 -10 4 -10 6 0 11 5 11 10 0 6 -2 10 -4 10 -3 0
-8 -4 -11 -10z"/>
<path d="M237 140 c3 -11 9 -20 14 -20 5 0 9 9 9 20 0 11 -6 20 -14 20 -9 0
-12 -7 -9 -20z"/>
<path d="M396 153 c-12 -12 -6 -33 9 -33 8 0 15 6 15 14 0 17 -14 28 -24 19z"/>
<path d="M940 149 c0 -5 5 -7 10 -4 6 3 10 8 10 11 0 2 -4 4 -10 4 -5 0 -10
-5 -10 -11z"/>
<path d="M1255 150 c-3 -5 -4 -14 0 -20 8 -13 35 -1 35 16 0 16 -26 19 -35 4z"/>
<path d="M1980 150 c0 -5 5 -10 10 -10 6 0 10 -7 10 -15 0 -20 29 -19 37 0 7
19 5 20 -29 29 -17 4 -28 2 -28 -4z"/>
<path d="M3307 153 c-16 -15 -5 -31 23 -35 21 -3 30 0 30 9 0 8 -4 11 -10 8
-5 -3 -10 1 -10 9 0 16 -21 22 -33 9z"/>
<path d="M893 123 c-7 -15 -10 -29 -7 -32 4 -3 9 -1 11 6 2 7 11 9 20 6 11 -4
14 0 11 17 -4 33 -21 34 -35 3z"/>
<path d="M1486 143 c-12 -12 -6 -33 9 -33 8 0 15 6 15 14 0 17 -14 28 -24 19z"/>
<path d="M1555 141 c-3 -5 -1 -12 5 -16 12 -7 30 2 30 16 0 12 -27 12 -35 0z"/>
<path d="M2305 140 c-3 -5 -1 -10 4 -10 6 0 11 5 11 10 0 6 -2 10 -4 10 -3 0
-8 -4 -11 -10z"/>
<path d="M545 130 c3 -5 8 -10 11 -10 2 0 4 5 4 10 0 6 -5 10 -11 10 -5 0 -7
-4 -4 -10z"/>
<path d="M1094 126 c-4 -10 -2 -22 4 -28 8 -8 13 -7 18 6 4 10 2 22 -4 28 -8
8 -13 7 -18 -6z"/>
<path d="M1170 119 c0 -24 23 -21 28 4 2 10 -3 17 -12 17 -10 0 -16 -9 -16
-21z"/>
<path d="M2261 126 c-8 -10 -9 -16 -1 -21 13 -8 30 3 30 21 0 18 -14 18 -29 0z"/>
<path d="M325 121 c-5 -10 32 -51 46 -51 4 0 11 5 14 10 3 6 0 10 -8 10 -8 0
-17 9 -20 20 -5 21 -22 27 -32 11z"/>
<path d="M607 124 c-9 -10 2 -24 19 -24 8 0 14 7 14 15 0 15 -21 21 -33 9z"/>
<path d="M1393 123 c-18 -6 -16 -33 1 -33 19 0 31 19 20 30 -5 4 -15 5 -21 3z"/>
<path d="M1951 114 c0 -11 3 -14 6 -6 3 7 2 16 -1 19 -3 4 -6 -2 -5 -13z"/>
<path d="M2183 114 c-10 -26 7 -35 32 -17 14 10 25 20 25 23 0 12 -52 7 -57
-6z"/>
<path d="M2546 121 c-3 -5 1 -14 8 -20 16 -13 32 2 21 19 -8 12 -22 13 -29 1z"/>
<path d="M2637 124 c-8 -8 3 -34 14 -34 11 0 12 27 0 34 -4 3 -11 3 -14 0z"/>
<path d="M3270 120 c0 -5 5 -10 10 -10 6 0 10 5 10 10 0 6 -4 10 -10 10 -5 0
-10 -4 -10 -10z"/>
<path d="M3470 114 c0 -9 7 -14 17 -12 25 5 28 28 4 28 -12 0 -21 -6 -21 -16z"/>
<path d="M710 105 c0 -8 7 -15 15 -15 8 0 15 7 15 15 0 8 -7 15 -15 15 -8 0
-15 -7 -15 -15z"/>
<path d="M1770 105 c0 -9 5 -15 11 -13 6 2 11 8 11 13 0 5 -5 11 -11 13 -6 2
-11 -4 -11 -13z"/>
<path d="M1906 113 c-11 -11 -6 -23 9 -23 8 0 15 4 15 9 0 13 -16 22 -24 14z"/>
<path d="M2134 105 c3 -8 1 -15 -4 -15 -14 0 -13 -27 1 -36 6 -3 15 -2 20 3
12 12 1 63 -13 63 -6 0 -8 -7 -4 -15z"/>
<path d="M2382 108 c-18 -18 -14 -28 8 -28 11 0 20 6 20 14 0 21 -15 27 -28
14z"/>
<path d="M2985 111 c-3 -5 -1 -12 5 -16 5 -3 10 1 10 9 0 18 -6 21 -15 7z"/>
<path d="M3230 95 c0 -20 4 -26 18 -23 9 2 17 12 17 23 0 11 -8 21 -17 23 -14
3 -18 -3 -18 -23z"/>
<path d="M3380 105 c0 -8 9 -15 20 -15 11 0 20 7 20 15 0 8 -9 15 -20 15 -11
0 -20 -7 -20 -15z"/>
<path d="M3550 110 c0 -5 -7 -10 -15 -10 -8 0 -15 -4 -15 -10 0 -18 29 -11 40
10 7 14 7 20 0 20 -5 0 -10 -4 -10 -10z"/>
<path d="M3620 105 c0 -9 5 -15 11 -13 6 2 11 8 11 13 0 5 -5 11 -11 13 -6 2
-11 -4 -11 -13z"/>
<path d="M3760 111 c0 -5 5 -13 10 -16 6 -3 10 -2 10 4 0 5 -4 13 -10 16 -5 3
-10 2 -10 -4z"/>
<path d="M3890 104 c0 -8 5 -12 10 -9 6 4 8 11 5 16 -9 14 -15 11 -15 -7z"/>
<path d="M107 104 c-4 -4 -7 -14 -7 -23 0 -11 3 -12 11 -4 6 6 10 16 7 23 -2
6 -7 8 -11 4z"/>
<path d="M180 95 c0 -8 2 -15 4 -15 2 0 6 7 10 15 3 8 1 15 -4 15 -6 0 -10 -7
-10 -15z"/>
<path d="M255 99 c-4 -6 -5 -13 -2 -16 7 -7 27 6 27 18 0 12 -17 12 -25 -2z"/>
<path d="M450 95 c-10 -12 -10 -15 3 -15 19 0 31 16 18 24 -5 3 -14 -1 -21 -9z"/>
<path d="M531 97 c-6 -8 -8 -17 -5 -20 7 -7 44 14 44 25 0 13 -27 9 -39 -5z"/>
<path d="M2425 100 c3 -5 8 -10 11 -10 2 0 4 5 4 10 0 6 -5 10 -11 10 -5 0 -7
-4 -4 -10z"/>
<path d="M2482 96 c1 -10 8 -17 13 -17 15 1 12 24 -3 29 -9 3 -13 -2 -10 -12z"/>
<path d="M2920 101 c0 -6 5 -13 10 -16 6 -3 10 1 10 9 0 9 -4 16 -10 16 -5 0
-10 -4 -10 -9z"/>
<path d="M3708 103 c7 -3 16 -2 19 1 4 3 -2 6 -13 5 -11 0 -14 -3 -6 -6z"/>
<path d="M3820 100 c0 -5 5 -10 11 -10 5 0 7 5 4 10 -3 6 -8 10 -11 10 -2 0
-4 -4 -4 -10z"/>
<path d="M401 84 c0 -11 3 -14 6 -6 3 7 2 16 -1 19 -3 4 -6 -2 -5 -13z"/>
<path d="M1277 93 c-4 -3 -7 -12 -7 -20 0 -15 26 -18 34 -4 7 11 -18 33 -27
24z"/>
<path d="M1582 86 c1 -10 8 -17 13 -17 15 1 12 24 -3 29 -9 3 -13 -2 -10 -12z"/>
<path d="M1670 86 c0 -9 7 -16 16 -16 17 0 14 22 -4 28 -7 2 -12 -3 -12 -12z"/>
<path d="M1968 95 c-4 -4 -4 -13 -1 -21 3 -8 0 -14 -6 -14 -14 0 -14 -27 0
-36 19 -12 31 12 22 45 -5 18 -11 29 -15 26z"/>
<path d="M1184 79 c-10 -17 13 -36 27 -22 12 12 4 33 -11 33 -5 0 -12 -5 -16
-11z"/>
<path d="M2022 74 c4 -21 22 -23 26 -1 2 10 -3 17 -13 17 -10 0 -15 -6 -13
-16z"/>
<path d="M2317 83 c-22 -6 -17 -27 6 -31 12 -2 17 3 17 17 0 12 -1 20 -2 20
-2 -1 -11 -3 -21 -6z"/>
<path d="M2762 76 c1 -10 8 -17 13 -17 15 1 12 24 -3 29 -9 3 -13 -2 -10 -12z"/>
<path d="M2864 76 c-8 -22 3 -33 18 -18 9 9 9 15 0 24 -9 9 -13 7 -18 -6z"/>
<path d="M3456 83 c-13 -14 -5 -33 14 -33 11 0 20 6 20 14 0 15 -24 28 -34 19z"/>
<path d="M295 70 c-8 -13 4 -32 16 -25 12 8 12 35 0 35 -6 0 -13 -4 -16 -10z"/>
<path d="M580 65 c0 -8 6 -15 14 -15 8 0 16 7 20 15 4 10 -1 15 -14 15 -11 0
-20 -7 -20 -15z"/>
<path d="M896 72 c-4 -7 -18 -12 -31 -12 -29 0 -43 -19 -24 -31 22 -14 39 -10
39 9 0 14 2 15 10 2 8 -12 10 -12 15 2 9 23 2 47 -9 30z"/>
<path d="M2232 68 c-20 -20 -14 -28 21 -27 17 1 24 3 14 6 -9 2 -15 8 -12 13
9 14 -11 20 -23 8z"/>
<path d="M3735 70 c3 -5 11 -10 16 -10 6 0 7 5 4 10 -3 6 -11 10 -16 10 -6 0
-7 -4 -4 -10z"/>
<path d="M678 58 c9 -9 15 -9 24 0 9 9 7 12 -12 12 -19 0 -21 -3 -12 -12z"/>
<path d="M1405 61 c-8 -15 3 -31 21 -31 9 0 14 7 12 17 -4 20 -24 28 -33 14z"/>
<path d="M1512 53 c5 -25 28 -28 28 -4 0 12 -6 21 -16 21 -9 0 -14 -7 -12 -17z"/>
<path d="M2613 63 c-18 -7 -16 -33 2 -33 8 0 15 9 15 20 0 11 -1 20 -2 19 -2
0 -9 -3 -15 -6z"/>
<path d="M3355 60 c-8 -13 5 -60 17 -60 6 0 8 7 5 15 -4 8 -2 17 3 20 6 4 10
10 10 15 0 12 -28 21 -35 10z"/>
<path d="M230 45 c0 -8 5 -15 10 -15 6 0 10 7 10 15 0 8 -4 15 -10 15 -5 0
-10 -7 -10 -15z"/>
<path d="M515 50 c-8 -13 4 -32 16 -25 12 8 12 35 0 35 -6 0 -13 -4 -16 -10z"/>
<path d="M1114 49 c-10 -17 13 -36 27 -22 12 12 4 33 -11 33 -5 0 -12 -5 -16
-11z"/>
<path d="M1876 53 c-11 -11 -6 -23 9 -23 8 0 15 4 15 9 0 13 -16 22 -24 14z"/>
<path d="M2692 48 c6 -18 28 -21 28 -4 0 9 -7 16 -16 16 -9 0 -14 -5 -12 -12z"/>
<path d="M3030 45 c0 -8 5 -15 10 -15 6 0 10 7 10 15 0 8 -4 15 -10 15 -5 0
-10 -7 -10 -15z"/>
<path d="M3241 46 c-9 -11 -9 -16 0 -21 10 -7 28 10 29 28 0 12 -17 8 -29 -7z"/>
<path d="M3290 50 c0 -5 5 -10 10 -10 6 0 10 5 10 10 0 6 -4 10 -10 10 -5 0
-10 -4 -10 -10z"/>
<path d="M3590 46 c0 -9 7 -16 16 -16 9 0 14 5 12 12 -6 18 -28 21 -28 4z"/>
<path d="M3680 51 c0 -6 5 -13 10 -16 6 -3 10 1 10 9 0 9 -4 16 -10 16 -5 0
-10 -4 -10 -9z"/>
<path d="M3815 50 c3 -5 8 -10 11 -10 2 0 4 5 4 10 0 6 -5 10 -11 10 -5 0 -7
-4 -4 -10z"/>
<path d="M446 42 c-8 -13 11 -35 23 -28 16 10 14 36 -3 36 -8 0 -17 -4 -20 -8z"/>
<path d="M2970 35 c0 -8 5 -15 10 -15 6 0 10 7 10 15 0 8 -4 15 -10 15 -5 0
-10 -7 -10 -15z"/>
<path d="M110 19 c0 -11 4 -18 10 -14 5 3 7 12 3 20 -7 21 -13 19 -13 -6z"/>
<path d="M1334 29 c-10 -17 13 -36 27 -22 12 12 4 33 -11 33 -5 0 -12 -5 -16
-11z"/>
<path d="M1717 34 c-8 -8 1 -24 14 -24 5 0 9 7 9 15 0 15 -12 20 -23 9z"/>
<path d="M2166 23 c-5 -12 -9 -14 -14 -6 -8 13 -62 5 -62 -9 0 -5 24 -8 52 -6
41 2 54 7 56 21 4 22 -24 23 -32 0z"/>
<path d="M2440 30 c0 -5 5 -10 10 -10 6 0 10 5 10 10 0 6 -4 10 -10 10 -5 0
-10 -4 -10 -10z"/>
<path d="M2480 30 c-12 -7 -12 -12 -2 -22 9 -9 15 -9 24 0 16 16 -2 34 -22 22z"/>
<path d="M2530 26 c0 -10 9 -16 21 -16 24 0 21 23 -4 28 -10 2 -17 -3 -17 -12z"/>
<path d="M360 15 c0 -8 7 -15 15 -15 8 0 15 7 15 15 0 8 -7 15 -15 15 -8 0
-15 -7 -15 -15z"/>
<path d="M1247 23 c-13 -12 -7 -23 13 -23 11 0 20 7 20 15 0 15 -21 21 -33 8z"/>
<path d="M1640 15 c0 -8 5 -15 10 -15 6 0 10 7 10 15 0 8 -4 15 -10 15 -5 0
-10 -7 -10 -15z"/>
<path d="M3297 24 c-13 -13 -7 -24 14 -24 11 0 19 5 17 12 -5 14 -22 21 -31
12z"/>
<path d="M3480 16 c0 -10 9 -16 21 -16 24 0 21 23 -4 28 -10 2 -17 -3 -17 -12z"/>
<path d="M185 10 c-3 -5 -1 -10 4 -10 6 0 11 5 11 10 0 6 -2 10 -4 10 -3 0 -8
-4 -11 -10z"/>
<path d="M300 10 c0 -5 5 -10 10 -10 6 0 10 5 10 10 0 6 -4 10 -10 10 -5 0
-10 -4 -10 -10z"/>
<path d="M675 10 c-3 -5 3 -10 15 -10 12 0 18 5 15 10 -3 6 -10 10 -15 10 -5
0 -12 -4 -15 -10z"/>
<path d="M820 10 c0 -5 5 -10 10 -10 6 0 10 5 10 10 0 6 -4 10 -10 10 -5 0
-10 -4 -10 -10z"/>
<path d="M2285 10 c-3 -5 3 -10 15 -10 12 0 18 5 15 10 -3 6 -10 10 -15 10 -5
0 -12 -4 -15 -10z"/>
<path d="M2335 10 c3 -5 8 -10 11 -10 2 0 4 5 4 10 0 6 -5 10 -11 10 -5 0 -7
-4 -4 -10z"/>
<path d="M2370 10 c0 -5 9 -10 20 -10 11 0 20 5 20 10 0 6 -9 10 -20 10 -11 0
-20 -4 -20 -10z"/>
<path d="M2915 10 c-3 -5 3 -10 15 -10 12 0 18 5 15 10 -3 6 -10 10 -15 10 -5
0 -12 -4 -15 -10z"/>
<path d="M3430 10 c0 -5 5 -10 11 -10 5 0 7 5 4 10 -3 6 -8 10 -11 10 -2 0 -4
-4 -4 -10z"/>
<path d="M758 3 c7 -3 16 -2 19 1 4 3 -2 6 -13 5 -11 0 -14 -3 -6 -6z"/>
<path d="M878 3 c7 -3 16 -2 19 1 4 3 -2 6 -13 5 -11 0 -14 -3 -6 -6z"/>
<path d="M1578 3 c7 -3 16 -2 19 1 4 3 -2 6 -13 5 -11 0 -14 -3 -6 -6z"/>
<path d="M2868 3 c7 -3 16 -2 19 1 4 3 -2 6 -13 5 -11 0 -14 -3 -6 -6z"/>
<path d="M3708 3 c7 -3 16 -2 19 1 4 3 -2 6 -13 5 -11 0 -14 -3 -6 -6z"/>
</g>
</svg>
