<?xml version="1.0" standalone="no"?><!DOCTYPE svg PUBLIC "-//W3C//DTD SVG 1.1//EN" "http://www.w3.org/Graphics/SVG/1.1/DTD/svg11.dtd"><svg width="100%" height="100%" viewBox="0 0 434 416" version="1.1" xmlns="http://www.w3.org/2000/svg" xmlns:xlink="http://www.w3.org/1999/xlink" xml:space="preserve" style="fill-rule:evenodd;clip-rule:evenodd;stroke-linejoin:round;stroke-miterlimit:1.41421;"><g id="Layer1"><path d="M388.332,102.872l19.649,10.998l-14.369,7.648l-5.28,-18.646Z" style="fill:#3c3c3c;"/><path d="M51.158,307.604l-19.079,-11.066l17.497,-9.532l1.582,20.598Z" style="fill:#3c3c3c;"/></g><rect x="110.082" y="223.291" width="21.036" height="181.695" style="fill:#4ca6ff;"/><path d="M136.659,333.214l82.076,47.387l151.96,-87.735l21.819,12.418l-172.689,99.702l-83.166,-48.016l0,-23.756ZM104.628,314.721l0,23.756l-57.79,-33.365l0,-0.248l20.186,-11.854l37.604,21.711ZM370.763,117.184l-152.028,-87.773l-152.039,87.779l-19.632,-11.957l172.761,-99.743l172.987,99.874l0,0.368l-22.049,11.452Z" style="fill:#3c3c3c;"/><path d="M219.825,78.517l109.743,63.361l0,126.72l-109.743,63.36l-109.743,-63.36l0,-126.72l109.743,-63.361ZM219.825,102.889l88.636,51.175l0,102.348l-88.636,51.174l-88.636,-51.174l0,-102.348l88.636,-51.175Z" style="fill:#4ca6ff;"/><path d="M104.628,278.651l-53.262,28.953l-9.057,-16.662l62.319,-33.876l0,21.585ZM143.961,257.27l-7.302,-4.198l0,-13.418l159.025,-86.446l7.327,4.225l0,13.377l-159.05,86.46ZM335.074,153.381l-0.052,-14.568l0.055,-0.095l-6.181,-3.563l59.387,-32.283l9.057,16.661l-62.266,33.848Z" style="fill:#3c3c3c;"/></svg>